<svg width="60" height="60" viewBox="0 0 60 60" fill="none" xmlns="http://www.w3.org/2000/svg">
<g id="Frame 1171280631">
<circle id="Ellipse 8" cx="30" cy="30" r="30" fill="#2A2200"/>
<path id="Vector" d="M32.9923 18.5698L33.9583 20.3394H32.0259L32.9923 18.5698ZM38.9222 18.0185H37.0105L37.9664 19.7691L38.9222 18.0185ZM44.9293 37.5959C44.4014 38.5172 43.8743 39.4389 43.3464 40.3599C43.1498 40.7134 42.6373 40.7254 42.4309 40.3659C41.9096 39.4566 41.3909 38.549 40.8697 37.6396C40.625 37.2932 40.8676 36.7992 41.3004 36.7992H42.1627C41.2745 34.5125 39.0877 33.0085 36.6471 33.0085C33.3778 33.0085 30.728 35.6786 30.728 38.9721C30.728 42.2658 33.3782 44.9356 36.6471 44.9356C38.8654 44.9356 40.8802 43.7014 41.9033 41.7181C42.0379 41.4575 42.3565 41.3561 42.6152 41.4914C42.8739 41.627 42.9745 41.948 42.8403 42.2086C41.6404 44.5344 39.2493 46 36.6471 46C32.7946 46 29.6712 42.8531 29.6712 38.9717C29.6712 35.0903 32.7946 31.9434 36.6471 31.9434C39.6671 31.9434 42.3481 33.9072 43.2808 36.7985L44.4736 36.8006C44.8718 36.8013 45.1326 37.2392 44.9293 37.5959ZM43.5609 37.8639H42.2132C42.4379 38.2562 42.6622 38.6458 42.8872 39.0377C43.1112 38.6465 43.3366 38.2555 43.5609 37.8639ZM36.1577 16.2687C36.4494 16.2687 36.686 16.0303 36.686 15.7365V13.5322C36.686 13.2384 36.4494 13 36.1577 13C35.8661 13 35.6295 13.2384 35.6295 13.5322V15.7365C35.6295 16.0303 35.8661 16.2687 36.1577 16.2687ZM35.7434 20.3394H37.074L36.4087 19.1211L35.7434 20.3394ZM35.8065 18.0185H33.8948L34.8507 19.7691L35.8065 18.0185ZM37.2752 21.4041H35.5415L36.4084 24.5789L37.2752 21.4041ZM34.4504 21.4041H32.1714L35.5899 25.5783L34.4504 21.4041ZM32.5566 16.5166C32.763 16.7246 33.0974 16.7246 33.3035 16.5166C33.51 16.3086 33.51 15.9717 33.3035 15.7641L31.7564 14.2053C31.5499 13.9973 31.2155 13.9973 31.0094 14.2053C30.803 14.4129 30.803 14.7502 31.0094 14.9578L32.5566 16.5166ZM38.3667 21.4041L37.2272 25.5783L40.646 21.4041H38.3667ZM25.7486 32.8764C28.7795 32.8764 31.2365 30.4009 31.2365 27.3472C31.2365 24.2936 28.7795 21.8177 25.7486 21.8177C22.7177 21.8177 20.2606 24.2932 20.2606 27.3472C20.2606 30.4012 22.7177 32.8764 25.7486 32.8764ZM39.8251 18.5698L38.8591 20.3394H40.7915L39.8251 18.5698ZM30.0077 34.4161C28.6999 33.8536 27.2607 33.5414 25.7486 33.5414C20.2781 33.5414 15.7534 37.6185 15.0036 42.9213C14.9896 43.0202 15.0163 43.1109 15.0811 43.1861C15.1459 43.2614 15.2315 43.3009 15.3303 43.3009H29.8583C29.0504 42.0172 28.614 40.522 28.614 38.9724C28.6144 37.3306 29.1044 35.7496 30.0077 34.4161ZM39.9762 16.5166L41.5234 14.9578C41.7298 14.7498 41.7298 14.4129 41.5234 14.2053C41.3169 13.9973 40.9825 13.9973 40.7764 14.2053L39.2293 15.7641C39.0228 15.9721 39.0228 16.309 39.2293 16.5166C39.4357 16.7243 39.7701 16.7246 39.9762 16.5166ZM36.6467 35.3227C36.3551 35.3227 36.1185 35.561 36.1185 35.8548V38.9724C36.1185 39.2662 36.3551 39.5046 36.6467 39.5046C37.5608 39.5046 38.4753 39.5131 39.3895 39.518C39.68 39.5191 39.9166 39.2828 39.9177 38.9897C39.9187 38.697 39.6842 38.4586 39.3937 38.4575L37.1753 38.4448V35.8541C37.1753 35.561 36.9387 35.3227 36.6467 35.3227Z" fill="#E9C872"/>
</g>
</svg>
