<svg width="60" height="60" viewBox="0 0 60 60" fill="none" xmlns="http://www.w3.org/2000/svg">
<g id="Frame 1171280645">
<circle id="Ellipse 8" cx="30" cy="30" r="30" fill="#2A2200"/>
<path id="Vector" d="M35.2798 25.8976H39.5935C40.0072 25.8976 40.3442 26.2334 40.3442 26.6483V45.2493C40.3442 45.6629 40.0085 46 39.5935 46H35.2798C34.8661 46 34.5291 45.6642 34.5291 45.2493V26.6483C34.5291 26.2347 34.8648 25.8976 35.2798 25.8976ZM33.0379 17.271C32.6383 17.3783 32.2285 17.1408 32.1213 16.7412C32.014 16.3416 32.2515 15.9318 32.6511 15.8246L39.3651 14.0258C39.7647 13.9185 40.1745 14.156 40.2817 14.5556C40.3175 14.6896 40.3137 14.825 40.2792 14.9513L38.4816 21.6578C38.3744 22.0574 37.9633 22.2949 37.565 22.1876C37.1654 22.0804 36.9279 21.6693 37.0352 21.271L38.1191 17.2278L30.9354 24.4307C30.6443 24.7244 30.1707 24.7244 29.8783 24.4333L29.8758 24.4307L29.8732 24.4333L26.3523 20.9124L17.2394 28.9017C16.9292 29.1736 16.4568 29.1417 16.1849 28.8314C15.9129 28.5212 15.9449 28.0489 16.2551 27.7769L25.8491 19.3637L25.8567 19.3561C26.1504 19.0624 26.624 19.0624 26.9164 19.3561L30.4017 22.8414L37.0251 16.2015L33.0329 17.2714L33.0379 17.271ZM18.5566 32.1711H22.8704C23.284 32.1711 23.621 32.5068 23.621 32.9217V45.248C23.621 45.6616 23.2853 45.9987 22.8704 45.9987H18.5566C18.1429 45.9987 17.8059 45.6629 17.8059 45.248V32.9217C17.8059 32.5081 18.1416 32.1711 18.5566 32.1711ZM26.9188 28.8338H31.2325C31.6462 28.8338 31.9832 29.1696 31.9832 29.5845V45.2467C31.9832 45.6603 31.6475 45.9974 31.2325 45.9974H26.9188C26.5051 45.9974 26.1681 45.6616 26.1681 45.2467V29.5845C26.1681 29.1709 26.5038 28.8338 26.9188 28.8338Z" fill="#E9C872"/>
</g>
</svg>
