<svg width="60" height="60" viewBox="0 0 60 60" fill="none" xmlns="http://www.w3.org/2000/svg">
<g id="Frame 1171280646">
<circle id="Ellipse 8" cx="30" cy="30" r="30" fill="#2A2200"/>
<g id="diversity_3">
<mask id="mask0_539_5638" style="mask-type:alpha" maskUnits="userSpaceOnUse" x="14" y="14" width="32" height="32">
<rect id="Bounding box" x="14" y="14" width="32" height="32" fill="#D9D9D9"/>
</mask>
<g mask="url(#mask0_539_5638)">
<path id="diversity_3_2" d="M15.333 40.6666V35.3333C15.333 34.5777 15.5941 33.9444 16.1163 33.4333C16.6386 32.9221 17.2663 32.6666 17.9997 32.6666H22.3663C22.8108 32.6666 23.233 32.7777 23.633 32.9999C24.033 33.2221 24.3552 33.5221 24.5997 33.8999C25.2441 34.7666 26.0386 35.4444 26.983 35.9333C27.9275 36.4221 28.933 36.6666 29.9997 36.6666C31.0886 36.6666 32.1052 36.4221 33.0497 35.9333C33.9941 35.4444 34.7775 34.7666 35.3997 33.8999C35.6886 33.5221 36.0275 33.2221 36.4163 32.9999C36.8052 32.7777 37.2108 32.6666 37.633 32.6666H41.9997C42.7552 32.6666 43.3886 32.9221 43.8997 33.4333C44.4108 33.9444 44.6663 34.5777 44.6663 35.3333V40.6666H35.333V37.6333C34.5552 38.1888 33.7163 38.611 32.8163 38.8999C31.9163 39.1888 30.9775 39.3333 29.9997 39.3333C29.0441 39.3333 28.1108 39.1833 27.1997 38.8833C26.2886 38.5833 25.4441 38.1555 24.6663 37.5999V40.6666H15.333ZM29.9997 35.3333C29.1552 35.3333 28.3552 35.1388 27.5997 34.7499C26.8441 34.361 26.2108 33.8221 25.6997 33.1333C25.3219 32.5777 24.8497 32.1388 24.283 31.8166C23.7163 31.4944 23.0997 31.3333 22.433 31.3333C22.9219 30.511 23.9552 29.861 25.533 29.3833C27.1108 28.9055 28.5997 28.6666 29.9997 28.6666C31.3997 28.6666 32.8886 28.9055 34.4663 29.3833C36.0441 29.861 37.0775 30.511 37.5663 31.3333C36.9219 31.3333 36.3108 31.4944 35.733 31.8166C35.1552 32.1388 34.6775 32.5777 34.2997 33.1333C33.8108 33.8444 33.1886 34.3888 32.433 34.7666C31.6775 35.1444 30.8663 35.3333 29.9997 35.3333ZM19.333 31.3333C18.2219 31.3333 17.2775 30.9444 16.4997 30.1666C15.7219 29.3888 15.333 28.4444 15.333 27.3333C15.333 26.1999 15.7219 25.2499 16.4997 24.4833C17.2775 23.7166 18.2219 23.3333 19.333 23.3333C20.4663 23.3333 21.4163 23.7166 22.183 24.4833C22.9497 25.2499 23.333 26.1999 23.333 27.3333C23.333 28.4444 22.9497 29.3888 22.183 30.1666C21.4163 30.9444 20.4663 31.3333 19.333 31.3333ZM40.6663 31.3333C39.5552 31.3333 38.6108 30.9444 37.833 30.1666C37.0552 29.3888 36.6663 28.4444 36.6663 27.3333C36.6663 26.1999 37.0552 25.2499 37.833 24.4833C38.6108 23.7166 39.5552 23.3333 40.6663 23.3333C41.7997 23.3333 42.7497 23.7166 43.5163 24.4833C44.283 25.2499 44.6663 26.1999 44.6663 27.3333C44.6663 28.4444 44.283 29.3888 43.5163 30.1666C42.7497 30.9444 41.7997 31.3333 40.6663 31.3333ZM29.9997 27.3333C28.8886 27.3333 27.9441 26.9444 27.1663 26.1666C26.3886 25.3888 25.9997 24.4444 25.9997 23.3333C25.9997 22.1999 26.3886 21.2499 27.1663 20.4833C27.9441 19.7166 28.8886 19.3333 29.9997 19.3333C31.133 19.3333 32.083 19.7166 32.8497 20.4833C33.6163 21.2499 33.9997 22.1999 33.9997 23.3333C33.9997 24.4444 33.6163 25.3888 32.8497 26.1666C32.083 26.9444 31.133 27.3333 29.9997 27.3333Z" fill="#E9C872"/>
</g>
</g>
</g>
</svg>
