<svg width="702" height="702" viewBox="0 0 702 702" fill="none" xmlns="http://www.w3.org/2000/svg">
<circle cx="351" cy="351" r="351" fill="url(#paint0_radial_796_4804)" fill-opacity="0.6"/>
<path opacity="0.8" d="M111.801 507.809C101.605 509.33 103.212 511.51 109.832 513.694C108.046 513.505 104.261 513.762 103.411 516.303C102.844 517.996 104.225 519.4 105.763 520.332C104.099 519.776 102.278 519.69 101.712 521.384C101.173 522.993 102.392 524.34 103.834 525.27C102.269 524.709 100.655 524.543 100.225 525.83C99.5449 527.862 103.384 531.594 105.388 533.206L112.894 548.161L132.533 508.931C126.439 507.272 119.494 506.661 111.801 507.809Z" fill="black"/>
<g filter="url(#filter0_d_796_4804)">
<rect x="114.674" y="483" width="30.5086" height="65.5038" rx="4" transform="rotate(13.3796 114.674 483)" fill="url(#paint1_linear_796_4804)"/>
<rect x="115.267" y="483.963" width="28.9086" height="63.9038" rx="3.2" transform="rotate(13.3796 115.267 483.963)" stroke="black" stroke-width="1.6"/>
</g>
<rect x="124.143" y="488.51" width="9.53394" height="2.11302" rx="1.05651" transform="rotate(13.3796 124.143 488.51)" fill="black"/>
<path d="M143.501 515.151C136.501 546.651 122.501 610.351 122.501 613.151L96 607.5L113 549.849L120.5 551.651C120.333 551.151 119.5 547.651 121.501 541.651C123.809 534.726 128.334 533.984 131.001 534.651C131.334 532.484 132.301 526.751 133.501 521.151C135.101 513.551 140.834 513.984 143.501 515.151Z" fill="#D9D9D9"/>
<path d="M143.501 515.151C136.501 546.651 122.501 610.351 122.501 613.151L96 607.5L113 549.849L120.5 551.651C120.333 551.151 119.5 547.651 121.501 541.651C123.809 534.726 128.334 533.984 131.001 534.651C131.334 532.484 132.301 526.751 133.501 521.151C135.101 513.551 140.834 513.984 143.501 515.151Z" fill="black"/>
<g opacity="0.35">
<path opacity="0.8" d="M378.183 508.133C369.079 511.498 370.98 513.198 377.502 513.935C375.819 514.105 372.38 515.071 372.086 517.576C371.89 519.246 373.433 520.273 375.029 520.837C373.389 520.645 371.694 520.916 371.498 522.586C371.312 524.173 372.695 525.179 374.202 525.759C372.652 525.543 371.133 525.701 370.984 526.97C370.749 528.974 375.006 531.674 377.163 532.774L386.96 545.11L397.506 505.174C391.57 504.819 385.052 505.593 378.183 508.133Z" fill="black"/>
<rect x="376.83" y="485.537" width="27.1241" height="60.0724" rx="3.2" transform="rotate(1.57792 376.83 485.537)" fill="url(#paint2_linear_796_4804)" stroke="black" stroke-width="1.6"/>
<rect x="385.841" y="487.97" width="8.97629" height="1.98943" rx="0.994715" transform="rotate(1.57792 385.841 487.97)" fill="black"/>
<path d="M408.812 508.795C408.427 539.173 404.461 654.419 405 657L379.489 656.895L387.384 546.646L394.643 546.862C394.393 546.434 392.951 543.369 393.64 537.454C394.434 530.627 398.461 529.072 401.047 529.173C400.937 527.112 400.724 521.642 400.752 516.25C400.763 508.938 406.13 508.233 408.812 508.795Z" fill="#D9D9D9"/>
<path d="M408.812 508.795C408.427 539.173 404.461 654.419 405 657L379.489 656.895L387.384 546.646L394.643 546.862C394.393 546.434 392.951 543.369 393.64 537.454C394.434 530.627 398.461 529.072 401.047 529.173C400.937 527.112 400.724 521.642 400.752 516.25C400.763 508.938 406.13 508.233 408.812 508.795Z" fill="black"/>
</g>
<g opacity="0.35">
<path opacity="0.8" d="M175.891 485.952C168.311 488.092 169.739 489.588 174.968 490.603C173.596 490.632 170.752 491.193 170.354 493.201C170.089 494.54 171.271 495.469 172.526 496.028C171.212 495.767 169.823 495.878 169.558 497.216C169.306 498.488 170.36 499.391 171.542 499.956C170.302 499.682 169.063 499.713 168.861 500.73C168.543 502.336 171.813 504.793 173.488 505.821L180.623 516.428L191.712 484.796C186.933 484.129 181.61 484.338 175.891 485.952Z" fill="black"/>
<rect x="176.378" y="467.752" width="21.7094" height="48.4466" rx="3.2" transform="rotate(6.10445 176.378 467.752)" fill="url(#paint3_linear_796_4804)" stroke="black" stroke-width="1.6"/>
<rect x="183.379" y="470.132" width="7.28419" height="1.61441" rx="0.807204" transform="rotate(6.10445 183.379 470.132)" fill="black"/>
<path d="M200.627 488.449C198.37 513 193.923 562.631 194.194 564.753L173.563 563.034L180.869 517.697L186.727 518.337C186.553 517.974 185.582 515.402 186.518 510.662C187.598 505.19 190.955 504.19 193.041 504.437C193.084 502.763 193.262 498.324 193.629 493.964C194.107 488.049 198.494 487.823 200.627 488.449Z" fill="#D9D9D9"/>
<path d="M200.627 488.449C198.37 513 193.923 562.631 194.194 564.753L173.563 563.034L180.869 517.697L186.727 518.337C186.553 517.974 185.582 515.402 186.518 510.662C187.598 505.19 190.955 504.19 193.041 504.437C193.084 502.763 193.262 498.324 193.629 493.964C194.107 488.049 198.494 487.823 200.627 488.449Z" fill="black"/>
</g>
<path d="M311 604V560.5C311 557.333 311.9 550 315.5 546C320 541 337.5 532 356.5 541.5C363.482 544.991 361.799 546.154 356.5 546.133C357.833 546.422 360.5 547.5 360.5 549.5C360.5 550.833 359.167 551.5 357.833 551.796C359.167 551.796 360.5 552.167 360.5 553.5C360.5 554.767 359.297 555.432 358.034 555.749C359.297 555.722 360.5 555.987 360.5 557C360.5 558.6 356.833 560.333 355 561L311 604Z" fill="url(#paint4_linear_796_4804)"/>
<g filter="url(#filter1_d_796_4804)">
<rect x="323" y="514" width="34" height="73" rx="4" fill="url(#paint5_linear_796_4804)"/>
<rect x="323.8" y="514.8" width="32.4" height="71.4" rx="3.2" stroke="black" stroke-width="1.6"/>
</g>
<rect x="334.688" y="517.532" width="10.625" height="2.35484" rx="1.17742" fill="black"/>
<path d="M313.5 565.5C309.1 578.7 311.666 631 313.5 655.5H349C344.6 643.5 340.5 604.167 339 586.5H334.5V561C345.7 558.6 346.5 551.667 345.5 548.5C328.5 549 319 549 313.5 565.5Z" fill="black"/>
<path d="M454.74 567.599L449.066 530.836C448.653 528.16 448.457 521.845 450.977 517.995C454.128 513.183 467.744 503.294 485.04 508.844C491.397 510.884 490.126 512.086 485.645 512.759C486.809 512.83 489.203 513.393 489.464 515.083C489.638 516.21 488.598 516.947 487.51 517.372C488.637 517.198 489.812 517.337 489.986 518.464C490.151 519.534 489.221 520.253 488.195 520.686C489.259 520.499 490.31 520.565 490.443 521.422C490.651 522.774 487.779 524.717 486.316 525.519L454.74 567.599Z" fill="url(#paint6_linear_796_4804)"/>
<g filter="url(#filter2_d_796_4804)">
<rect x="453.142" y="489.973" width="29.0742" height="62.424" rx="4" transform="rotate(-8.77434 453.142 489.973)" fill="url(#paint7_linear_796_4804)"/>
<rect x="454.054" y="490.642" width="27.4742" height="60.824" rx="3.2" transform="rotate(-8.77434 454.054 490.642)" stroke="black" stroke-width="1.6"/>
</g>
<rect x="463.479" y="491.434" width="9.08569" height="2.01368" rx="1.00684" transform="rotate(-8.77434 463.479 491.434)" fill="black"/>
<path d="M451.83 534.736C449.834 546.465 467.572 638.534 472.317 659L502.319 654.369C497.035 644.802 479.692 563.892 476.12 549.157L472.317 549.744L468.991 528.194C478.143 524.704 477.915 518.741 476.657 516.195C462.355 518.835 454.326 520.074 451.83 534.736Z" fill="black"/>
<path d="M563.859 578.697L571.756 542.347C572.331 539.701 572.91 533.41 570.628 529.413C567.775 524.418 554.785 513.721 537.184 518.21C530.715 519.86 531.911 521.138 536.343 522.082C535.176 522.081 532.752 522.498 532.389 524.169C532.147 525.284 533.14 526.083 534.201 526.572C533.086 526.33 531.905 526.398 531.663 527.512C531.433 528.57 532.318 529.344 533.316 529.839C532.265 529.587 531.211 529.59 531.028 530.437C530.737 531.774 533.486 533.888 534.897 534.778L563.859 578.697Z" fill="url(#paint8_linear_796_4804)"/>
<g filter="url(#filter3_d_796_4804)">
<rect width="29.0742" height="62.424" rx="4" transform="matrix(-0.977207 -0.212288 -0.212288 0.977207 570.17 501.312)" fill="url(#paint9_linear_796_4804)"/>
<rect x="-0.951596" y="0.611935" width="27.4742" height="60.824" rx="3.2" transform="matrix(-0.977207 -0.212288 -0.212288 0.977207 568.418 501.124)" stroke="black" stroke-width="1.6"/>
</g>
<rect width="9.08569" height="2.01368" rx="1.00684" transform="matrix(-0.977207 -0.212288 -0.212288 0.977207 559.763 502.142)" fill="black"/>
<path d="M568.76 546.071C570.04 557.901 555.146 622.804 549.166 642.945L519.501 636.5C525.356 627.271 539.178 573.481 543.639 558.991L547.399 559.808L552.028 538.499C543.105 534.46 543.695 528.521 545.105 526.057C559.22 529.561 567.159 531.285 568.76 546.071Z" fill="black"/>
<path d="M288.648 539.146L283.431 502.825C283.051 500.181 281.42 494.166 277.934 491.258C273.577 487.623 257.886 482.207 243.161 492.418C237.75 496.171 239.295 496.94 243.717 496.287C242.638 496.688 240.541 497.908 240.781 499.578C240.941 500.691 242.134 501.088 243.283 501.175C242.17 501.335 241.101 501.805 241.261 502.918C241.413 503.975 242.497 504.386 243.59 504.5C242.532 504.629 241.559 504.994 241.681 505.84C241.872 507.176 245.142 508.184 246.753 508.52L288.648 539.146Z" fill="url(#paint10_linear_796_4804)"/>
<rect x="-0.678121" y="0.905622" width="27.0801" height="59.9778" rx="3.2" transform="matrix(-0.98984 0.142188 0.142188 0.98984 266.357 465.545)" fill="url(#paint11_linear_796_4804)" stroke="black" stroke-width="1.6"/>
<rect width="8.96253" height="1.98638" rx="0.993191" transform="matrix(-0.98984 0.142188 0.142188 0.98984 258.501 469.79)" fill="black"/>
<path d="M281.943 507.3C287.201 517.794 292.104 599.066 293.512 619.742L263.87 624C266.105 613.453 263.934 542.104 263.067 527.173L266.824 526.633L263.869 506.062C254.23 505.401 252.73 499.708 253.186 496.944C267.44 495.323 275.372 494.183 281.943 507.3Z" fill="black"/>
<g opacity="0.6">
<g clip-path="url(#clip0_796_4804)">
<rect x="80" y="159.146" width="158.662" height="138.966" rx="12" fill="url(#paint12_linear_796_4804)"/>
<rect x="80.8382" y="159.984" width="156.985" height="137.289" rx="11.1618" stroke="url(#paint13_linear_796_4804)" stroke-opacity="0.6" stroke-width="1.67644"/>
<g opacity="0.2">
<path d="M26.8397 214.718L65.5679 237.446L104.297 217.914L143.025 241.11L181.753 210.587L220.482 220.567L245.542 241.748L277.78 225.24H281.45L281.449 304.575H23.168L23.1688 215.228L26.8397 214.718Z" fill="#9E6E00"/>
</g>
<path d="M143.06 241.569L104.286 218.346L65.559 237.877L65.3806 237.772L26.6523 215.045L27.0381 214.391L65.5871 237.014L104.318 217.481L143.001 240.65L181.671 210.173L181.855 210.22L220.583 220.199L220.393 220.933L181.847 211.001L143.06 241.569Z" fill="#795E00"/>
<path d="M245.493 242.202L245.299 242.039L220.239 220.856L220.731 220.278L245.597 241.297L277.609 224.904L277.956 225.578L245.493 242.202Z" fill="#795E00"/>
<path d="M107.977 217.914C107.977 219.937 106.334 221.577 104.307 221.577C102.28 221.577 100.637 219.937 100.637 217.914C100.637 215.891 102.28 214.251 104.307 214.251C106.334 214.25 107.977 215.89 107.977 217.914Z" fill="#675700"/>
<path d="M104.304 221.956C102.07 221.956 100.253 220.143 100.253 217.914C100.253 215.686 102.07 213.872 104.304 213.872C106.536 213.872 108.353 215.685 108.353 217.914C108.353 220.143 106.536 221.956 104.304 221.956ZM104.304 214.63C102.489 214.63 101.012 216.103 101.012 217.914C101.012 219.726 102.489 221.198 104.304 221.198C106.118 221.198 107.594 219.725 107.594 217.914C107.594 216.103 106.118 214.63 104.304 214.63Z" fill="#F1AA14"/>
<path d="M143.026 244.773C145.053 244.773 146.696 243.133 146.696 241.11C146.696 239.087 145.053 237.447 143.026 237.447C140.999 237.447 139.355 239.087 139.355 241.11C139.355 243.133 140.999 244.773 143.026 244.773Z" fill="#675700"/>
<path d="M143.028 245.152C140.796 245.152 138.979 243.338 138.979 241.11C138.979 238.881 140.796 237.067 143.028 237.067C145.262 237.067 147.079 238.881 147.079 241.11C147.079 243.339 145.262 245.152 143.028 245.152ZM143.028 237.825C141.213 237.825 139.738 239.298 139.738 241.11C139.738 242.921 141.213 244.394 143.028 244.394C144.843 244.394 146.32 242.921 146.32 241.11C146.32 239.299 144.843 237.825 143.028 237.825Z" fill="#F1AA14"/>
<path d="M185.432 210.587C185.432 212.61 183.789 214.25 181.762 214.25C179.735 214.25 178.092 212.61 178.092 210.587C178.092 208.564 179.735 206.924 181.762 206.924C183.789 206.924 185.432 208.564 185.432 210.587Z" fill="#675700"/>
<path d="M181.76 214.629C179.526 214.629 177.709 212.816 177.709 210.587C177.709 208.358 179.526 206.545 181.76 206.545C183.992 206.545 185.809 208.359 185.809 210.587C185.809 212.816 183.992 214.629 181.76 214.629ZM181.76 207.303C179.945 207.303 178.468 208.777 178.468 210.587C178.468 212.398 179.945 213.871 181.76 213.871C183.575 213.871 185.05 212.398 185.05 210.587C185.05 208.777 183.574 207.303 181.76 207.303Z" fill="#F1AA14"/>
<path d="M224.154 220.567C224.154 222.59 222.51 224.23 220.484 224.23C218.457 224.23 216.813 222.59 216.813 220.567C216.813 218.544 218.457 216.904 220.484 216.904C222.51 216.903 224.154 218.543 224.154 220.567Z" fill="#675700"/>
<path d="M220.486 224.609C218.254 224.609 216.437 222.795 216.437 220.567C216.437 218.339 218.254 216.524 220.486 216.524C222.72 216.524 224.537 218.338 224.537 220.567C224.537 222.796 222.72 224.609 220.486 224.609ZM220.486 217.282C218.671 217.282 217.196 218.756 217.196 220.567C217.196 222.378 218.671 223.851 220.486 223.851C222.301 223.851 223.778 222.378 223.778 220.567C223.778 218.756 222.301 217.282 220.486 217.282Z" fill="#F1AA14"/>
</g>
</g>
<rect x="308.632" y="111.335" width="187.84" height="164.757" rx="11.6653" fill="url(#paint14_linear_796_4804)" stroke="url(#paint15_linear_796_4804)" stroke-width="0.669409"/>
<g opacity="0.6">
<path d="M399.747 234.903C372.316 234.903 350 212.719 350 185.451C350 158.184 372.317 136 399.747 136C427.177 136 449.494 158.184 449.494 185.451C449.494 212.719 427.178 234.903 399.747 234.903ZM399.747 141.217C375.209 141.217 355.248 161.061 355.248 185.451C355.248 209.843 375.21 229.686 399.747 229.686C424.283 229.686 444.246 209.842 444.246 185.451C444.246 161.06 424.284 141.217 399.747 141.217Z" fill="white"/>
<path d="M399.745 224.123C378.294 224.123 360.843 206.774 360.843 185.451C360.843 164.127 378.295 146.78 399.745 146.78C421.194 146.78 438.646 164.128 438.646 185.451C438.646 206.775 421.195 224.123 399.745 224.123ZM399.745 151.997C381.187 151.997 366.091 167.004 366.091 185.451C366.091 203.898 381.188 218.906 399.745 218.906C418.302 218.906 433.399 203.899 433.399 185.451C433.399 167.004 418.302 151.997 399.745 151.997Z" fill="white"/>
<path d="M399.745 212.103C384.962 212.103 372.936 200.147 372.936 185.452C372.936 170.758 384.962 158.802 399.745 158.802C406.074 158.802 412.219 161.037 417.046 165.094C423.09 170.174 426.555 177.594 426.555 185.452C426.555 200.146 414.528 212.103 399.745 212.103ZM399.745 164.018C387.856 164.018 378.183 173.633 378.183 185.451C378.183 197.27 387.856 206.885 399.745 206.885C411.635 206.885 421.307 197.27 421.307 185.451C421.307 179.131 418.52 173.162 413.658 169.076C409.777 165.815 404.837 164.018 399.745 164.018Z" fill="white"/>
<path d="M399.747 234.903C372.316 234.903 350 212.719 350 185.451C350 158.184 372.317 136 399.747 136C400.754 136 401.772 136.03 402.771 136.09C404.218 136.176 405.32 137.412 405.233 138.85C405.147 140.287 403.905 141.381 402.458 141.298C401.563 141.245 400.652 141.218 399.748 141.218C375.21 141.218 355.249 161.062 355.249 185.453C355.249 209.844 375.211 229.687 399.748 229.687C415.954 229.687 430.894 220.916 438.735 206.797C439.437 205.535 441.033 205.08 442.299 205.774C443.568 206.47 444.029 208.057 443.328 209.318C434.564 225.099 417.864 234.903 399.747 234.903Z" fill="#F1AA14"/>
<path d="M399.745 224.122C378.294 224.122 360.843 206.774 360.843 185.45C360.843 166.257 374.669 150.188 393.717 147.242C395.156 147.017 396.491 147.995 396.713 149.418C396.936 150.841 395.956 152.175 394.524 152.396C378.048 154.945 366.09 168.846 366.09 185.45C366.09 203.897 381.187 218.906 399.744 218.906C416.62 218.906 430.969 206.379 433.12 189.768C433.306 188.339 434.619 187.329 436.058 187.514C437.495 187.698 438.511 189.005 438.325 190.434C435.839 209.64 419.253 224.122 399.745 224.122Z" fill="#F1AA14"/>
<path d="M399.745 212.103C384.962 212.103 372.936 200.147 372.936 185.452C372.936 170.758 384.962 158.802 399.745 158.802L400.244 158.807C401.693 158.837 402.844 160.028 402.812 161.469C402.783 162.909 401.606 164.048 400.135 164.022L399.745 164.019C387.856 164.019 378.183 173.634 378.183 185.452C378.183 197.271 387.856 206.886 399.745 206.886C409.756 206.886 418.606 199.849 420.788 190.153C421.104 188.747 422.506 187.86 423.921 188.177C425.336 188.491 426.225 189.886 425.909 191.292C423.195 203.35 412.191 212.103 399.745 212.103Z" fill="#F1AA14"/>
</g>
<g opacity="0.6">
<g filter="url(#filter4_b_796_4804)">
<rect x="445.15" y="158.051" width="160.85" height="141.154" rx="12" fill="url(#paint16_linear_796_4804)" fill-opacity="0.5"/>
<rect x="445.485" y="158.386" width="160.181" height="140.485" rx="11.6653" stroke="url(#paint17_linear_796_4804)" stroke-opacity="0.6" stroke-width="0.669409"/>
</g>
<path d="M581.745 197.345H472.245C470.654 197.345 469.364 196.055 469.364 194.464C469.364 192.873 470.654 191.583 472.245 191.583H581.744C583.335 191.583 584.625 192.873 584.625 194.464C584.626 196.055 583.336 197.345 581.745 197.345Z" fill="#E7E5E6"/>
<path d="M539.851 197.345H472.245C470.654 197.345 469.364 196.055 469.364 194.464C469.364 192.873 470.654 191.583 472.245 191.583H539.851C541.442 191.583 542.732 192.873 542.732 194.464C542.732 196.055 541.442 197.345 539.851 197.345Z" fill="#795E00"/>
<path d="M581.745 213.19H472.245C470.654 213.19 469.364 211.9 469.364 210.309C469.364 208.718 470.654 207.428 472.245 207.428H581.744C583.335 207.428 584.625 208.718 584.625 210.309C584.626 211.9 583.336 213.19 581.745 213.19Z" fill="#E7E5E6"/>
<path d="M514.042 213.19H472.245C470.654 213.19 469.364 211.9 469.364 210.309C469.364 208.718 470.654 207.428 472.245 207.428H514.042C515.633 207.428 516.923 208.718 516.923 210.309C516.923 211.9 515.633 213.19 514.042 213.19Z" fill="#795E00"/>
<path d="M581.745 229.036H472.245C470.654 229.036 469.364 227.746 469.364 226.155C469.364 224.564 470.654 223.274 472.245 223.274H581.744C583.335 223.274 584.625 224.564 584.625 226.155C584.626 227.746 583.336 229.036 581.745 229.036Z" fill="#E7E5E6"/>
<path d="M574.843 229.036H472.245C470.654 229.036 469.364 227.746 469.364 226.155C469.364 224.564 470.654 223.274 472.245 223.274H574.842C576.433 223.274 577.723 224.564 577.723 226.155C577.723 227.746 576.434 229.036 574.843 229.036Z" fill="#795E00"/>
<path d="M581.745 244.881H472.245C470.654 244.881 469.364 243.591 469.364 242C469.364 240.409 470.654 239.119 472.245 239.119H581.744C583.335 239.119 584.625 240.409 584.625 242C584.626 243.592 583.336 244.881 581.745 244.881Z" fill="#E7E5E6"/>
<path d="M491.775 244.881H472.245C470.654 244.881 469.364 243.591 469.364 242C469.364 240.409 470.654 239.119 472.245 239.119H491.775C493.366 239.119 494.656 240.409 494.656 242C494.656 243.592 493.366 244.881 491.775 244.881Z" fill="#795E00"/>
<path d="M581.745 260.727H472.245C470.654 260.727 469.364 259.437 469.364 257.846C469.364 256.255 470.654 254.965 472.245 254.965H581.744C583.335 254.965 584.625 256.255 584.625 257.846C584.626 259.438 583.336 260.727 581.745 260.727Z" fill="#E7E5E6"/>
<path d="M555.306 260.727H472.245C470.654 260.727 469.364 259.437 469.364 257.846C469.364 256.255 470.654 254.965 472.245 254.965H555.306C556.898 254.965 558.187 256.255 558.187 257.846C558.187 259.438 556.898 260.727 555.306 260.727Z" fill="#795E00"/>
</g>
<g clip-path="url(#clip1_796_4804)">
<g filter="url(#filter5_b_796_4804)">
<rect x="213.176" y="188.689" width="245.105" height="215.092" rx="12" fill="url(#paint18_linear_796_4804)"/>
<rect x="214.676" y="190.189" width="242.105" height="212.092" rx="10.5" stroke="url(#paint19_linear_796_4804)" stroke-opacity="0.6" stroke-width="3"/>
</g>
<path d="M249.696 234.574H240.073V284.628H249.696V234.574Z" fill="#A88404"/>
<path d="M273.888 242.582H264.266V284.628H273.888V242.582Z" fill="#9D8141"/>
<path d="M261.615 258.363H251.992V284.628H261.615V258.363Z" fill="#7C6721"/>
<path d="M302.074 257.009H292.451V284.628H302.074V257.009Z" fill="#A88404"/>
<path d="M326.268 271.414H316.646V284.629H326.268V271.414Z" fill="#9D8141"/>
<path d="M313.992 241.474H304.37V284.629H313.992V241.474Z" fill="#7C6721"/>
<path d="M354.434 271.055H344.812V284.629H354.434V271.055Z" fill="#A88404"/>
<path d="M378.626 242.502H369.004V284.628H378.626V242.502Z" fill="#9D8141"/>
<path d="M366.353 226.989H356.73V284.629H366.353V226.989Z" fill="#7C6721"/>
<path d="M406.806 249.148H397.184V284.627H406.806V249.148Z" fill="#A88404"/>
<path d="M430.998 227.672H421.376V284.628H430.998V227.672Z" fill="#9D8141"/>
<path d="M418.725 275.391H409.103V284.628H418.725V275.391Z" fill="#7C6721"/>
<path d="M240.499 284.5H430.999" stroke="#5C4B13" stroke-width="2"/>
<path d="M264.076 314.451H273.681V364.505H264.076V314.451Z" fill="#A88404"/>
<path d="M239.93 322.46H249.534V364.505H239.93V322.46Z" fill="#9D8141"/>
<path d="M252.18 338.241H261.784V364.506H252.18V338.241Z" fill="#7C6721"/>
<path d="M316.342 336.886H325.947V364.506H316.342V336.886Z" fill="#A88404"/>
<path d="M292.197 351.291H301.801V364.506H292.197V351.291Z" fill="#9D8141"/>
<path d="M304.447 321.351H314.051V364.506H304.447V321.351Z" fill="#7C6721"/>
<path d="M421.396 350.931H431V364.505H421.396V350.931Z" fill="#A88404"/>
<path d="M397.249 322.379H406.854V364.505H397.249V322.379Z" fill="#9D8141"/>
<path d="M409.499 306.865H419.104V364.505H409.499V306.865Z" fill="#7C6721"/>
<path d="M369.122 329.027H378.727V364.505H369.122V329.027Z" fill="#A88404"/>
<path d="M344.976 307.55H354.58V364.506H344.976V307.55Z" fill="#9D8141"/>
<path d="M357.234 355.268H366.838V364.506H357.234V355.268Z" fill="#7C6721"/>
<path d="M240.5 364.5H431" stroke="#5C4B13" stroke-width="2"/>
</g>
<g filter="url(#filter6_b_796_4804)">
<rect x="424" y="445" width="268" height="69" rx="20" fill="white" fill-opacity="0.1"/>
<rect x="424" y="445" width="268" height="69" rx="20" fill="url(#paint20_linear_796_4804)" fill-opacity="0.4"/>
<rect x="425" y="446" width="266" height="67" rx="19" stroke="url(#paint21_linear_796_4804)" stroke-opacity="0.6" stroke-width="2"/>
<circle cx="450" cy="471" r="14.5625" fill="url(#paint22_linear_796_4804)"/>
<circle cx="450" cy="471" r="14.5625" fill="url(#paint23_linear_796_4804)"/>
<circle cx="450" cy="471" r="14.5625" stroke="url(#paint24_linear_796_4804)" stroke-width="0.875"/>
<circle cx="450" cy="471" r="10.1875" fill="url(#paint25_linear_796_4804)" stroke="url(#paint26_linear_796_4804)" stroke-width="0.875"/>
<g filter="url(#filter7_i_796_4804)">
<path d="M445.949 476.458C445.851 476.458 445.763 476.424 445.685 476.355C445.616 476.287 445.582 476.199 445.582 476.091V466.558C445.582 466.451 445.616 466.363 445.685 466.294C445.763 466.226 445.851 466.191 445.949 466.191H447.313C447.459 466.191 447.567 466.231 447.635 466.309C447.714 466.387 447.767 466.446 447.797 466.485L450.495 471.457L453.223 466.485C453.243 466.446 453.287 466.387 453.355 466.309C453.434 466.231 453.546 466.191 453.693 466.191H455.057C455.164 466.191 455.252 466.226 455.321 466.294C455.389 466.363 455.423 466.451 455.423 466.558V476.091C455.423 476.199 455.389 476.287 455.321 476.355C455.252 476.424 455.164 476.458 455.057 476.458H453.561C453.463 476.458 453.38 476.424 453.311 476.355C453.243 476.287 453.209 476.199 453.209 476.091V470.166L451.346 473.657C451.297 473.745 451.234 473.823 451.155 473.891C451.077 473.96 450.974 473.994 450.847 473.994H450.158C450.031 473.994 449.928 473.96 449.85 473.891C449.772 473.823 449.708 473.745 449.659 473.657L447.797 470.166V476.091C447.797 476.199 447.762 476.287 447.694 476.355C447.626 476.424 447.542 476.458 447.445 476.458H445.949Z" fill="url(#paint27_linear_796_4804)"/>
</g>
<path d="M484.406 463.455V478H481.771V466.018H481.686L478.284 468.192V465.777L481.899 463.455H484.406ZM493.156 478.199C492.209 478.199 491.362 478.021 490.613 477.666C489.865 477.306 489.271 476.814 488.831 476.189C488.395 475.564 488.163 474.849 488.135 474.044H490.692C490.739 474.641 490.997 475.128 491.466 475.507C491.934 475.881 492.498 476.068 493.156 476.068C493.672 476.068 494.131 475.95 494.534 475.713C494.936 475.476 495.254 475.147 495.486 474.726C495.718 474.304 495.831 473.824 495.827 473.284C495.831 472.735 495.715 472.247 495.479 471.821C495.242 471.395 494.917 471.061 494.506 470.82C494.094 470.573 493.62 470.45 493.085 470.45C492.649 470.446 492.221 470.526 491.8 470.692C491.378 470.857 491.044 471.075 490.798 471.345L488.419 470.955L489.179 463.455H497.616V465.656H491.359L490.94 469.513H491.025C491.295 469.196 491.676 468.933 492.169 468.724C492.661 468.511 493.201 468.405 493.788 468.405C494.669 468.405 495.455 468.613 496.146 469.03C496.837 469.442 497.382 470.01 497.78 470.734C498.177 471.459 498.376 472.287 498.376 473.22C498.376 474.181 498.154 475.038 497.709 475.791C497.268 476.539 496.655 477.129 495.869 477.56C495.088 477.986 494.184 478.199 493.156 478.199ZM506.132 478.277C504.962 478.277 503.959 477.981 503.121 477.389C502.287 476.793 501.646 475.933 501.196 474.811C500.751 473.684 500.528 472.328 500.528 470.741C500.533 469.155 500.758 467.806 501.203 466.693C501.653 465.576 502.294 464.723 503.128 464.136C503.966 463.549 504.967 463.256 506.132 463.256C507.297 463.256 508.298 463.549 509.136 464.136C509.974 464.723 510.616 465.576 511.061 466.693C511.511 467.811 511.736 469.16 511.736 470.741C511.736 472.332 511.511 473.691 511.061 474.818C510.616 475.94 509.974 476.797 509.136 477.389C508.303 477.981 507.301 478.277 506.132 478.277ZM506.132 476.054C507.041 476.054 507.758 475.607 508.284 474.712C508.814 473.812 509.079 472.489 509.079 470.741C509.079 469.586 508.959 468.616 508.717 467.83C508.476 467.044 508.135 466.452 507.694 466.054C507.254 465.652 506.733 465.45 506.132 465.45C505.228 465.45 504.513 465.9 503.987 466.8C503.461 467.695 503.196 469.009 503.192 470.741C503.187 471.902 503.303 472.877 503.54 473.668C503.781 474.458 504.122 475.055 504.562 475.457C505.003 475.855 505.526 476.054 506.132 476.054Z" fill="white"/>
<path d="M477.816 490.912V489.818H485.452V490.912H482.25V500H481.017V490.912H477.816ZM486.403 500V492.364H487.536V493.517H487.616C487.755 493.139 488.007 492.833 488.372 492.597C488.736 492.362 489.147 492.244 489.605 492.244C489.691 492.244 489.799 492.246 489.928 492.249C490.057 492.253 490.155 492.258 490.221 492.264V493.457C490.181 493.447 490.09 493.433 489.948 493.413C489.809 493.389 489.661 493.378 489.505 493.378C489.134 493.378 488.803 493.456 488.511 493.612C488.223 493.764 487.994 493.976 487.825 494.248C487.659 494.516 487.576 494.823 487.576 495.168V500H486.403ZM493.859 500.179C493.375 500.179 492.936 500.088 492.542 499.906C492.147 499.72 491.834 499.453 491.602 499.105C491.37 498.754 491.254 498.33 491.254 497.832C491.254 497.395 491.34 497.04 491.513 496.768C491.685 496.493 491.915 496.278 492.204 496.122C492.492 495.966 492.81 495.85 493.158 495.774C493.509 495.695 493.862 495.632 494.217 495.585C494.681 495.526 495.057 495.481 495.346 495.451C495.637 495.418 495.849 495.363 495.982 495.287C496.118 495.211 496.186 495.078 496.186 494.889V494.849C496.186 494.359 496.052 493.978 495.783 493.706C495.518 493.434 495.115 493.298 494.575 493.298C494.015 493.298 493.576 493.421 493.258 493.666C492.939 493.911 492.716 494.173 492.586 494.452L491.473 494.054C491.672 493.59 491.937 493.229 492.268 492.97C492.603 492.708 492.968 492.526 493.362 492.423C493.76 492.317 494.151 492.264 494.535 492.264C494.781 492.264 495.062 492.294 495.38 492.354C495.702 492.41 496.012 492.528 496.31 492.707C496.612 492.886 496.862 493.156 497.061 493.517C497.26 493.878 497.359 494.362 497.359 494.969V500H496.186V498.966H496.126C496.047 499.132 495.914 499.309 495.728 499.498C495.543 499.687 495.296 499.848 494.988 499.98C494.679 500.113 494.303 500.179 493.859 500.179ZM494.038 499.125C494.502 499.125 494.893 499.034 495.211 498.852C495.533 498.669 495.775 498.434 495.937 498.146C496.103 497.857 496.186 497.554 496.186 497.236V496.162C496.136 496.222 496.027 496.276 495.858 496.326C495.692 496.372 495.5 496.414 495.281 496.45C495.066 496.483 494.855 496.513 494.65 496.54C494.447 496.563 494.283 496.583 494.157 496.599C493.852 496.639 493.567 496.704 493.302 496.793C493.04 496.879 492.828 497.01 492.666 497.186C492.507 497.358 492.427 497.594 492.427 497.892C492.427 498.3 492.578 498.608 492.88 498.817C493.185 499.022 493.571 499.125 494.038 499.125ZM502.384 500.159C501.748 500.159 501.186 499.998 500.699 499.677C500.212 499.352 499.83 498.895 499.555 498.305C499.28 497.711 499.143 497.01 499.143 496.202C499.143 495.4 499.28 494.704 499.555 494.114C499.83 493.524 500.213 493.068 500.704 492.746C501.194 492.425 501.761 492.264 502.404 492.264C502.901 492.264 503.294 492.347 503.582 492.513C503.874 492.675 504.096 492.861 504.248 493.07C504.404 493.275 504.525 493.444 504.611 493.577H504.711V489.818H505.884V500H504.751V498.827H504.611C504.525 498.966 504.403 499.142 504.244 499.354C504.084 499.562 503.857 499.75 503.562 499.915C503.267 500.078 502.875 500.159 502.384 500.159ZM502.543 499.105C503.014 499.105 503.412 498.982 503.736 498.737C504.061 498.489 504.308 498.146 504.477 497.708C504.646 497.267 504.731 496.759 504.731 496.182C504.731 495.612 504.648 495.113 504.482 494.685C504.316 494.254 504.071 493.92 503.746 493.681C503.422 493.439 503.021 493.318 502.543 493.318C502.046 493.318 501.632 493.446 501.3 493.701C500.972 493.953 500.725 494.296 500.56 494.73C500.397 495.161 500.316 495.645 500.316 496.182C500.316 496.725 500.399 497.219 500.565 497.663C500.734 498.104 500.982 498.455 501.31 498.717C501.642 498.976 502.053 499.105 502.543 499.105ZM511.398 500.159C510.662 500.159 510.027 499.997 509.494 499.672C508.963 499.344 508.554 498.886 508.266 498.3C507.98 497.71 507.838 497.024 507.838 496.241C507.838 495.459 507.98 494.77 508.266 494.173C508.554 493.573 508.955 493.106 509.469 492.771C509.986 492.433 510.589 492.264 511.278 492.264C511.676 492.264 512.069 492.33 512.457 492.463C512.844 492.596 513.197 492.811 513.516 493.109C513.834 493.404 514.087 493.795 514.276 494.283C514.465 494.77 514.56 495.37 514.56 496.082V496.58H508.673V495.565H513.366C513.366 495.134 513.28 494.75 513.108 494.412C512.939 494.074 512.697 493.807 512.382 493.612C512.07 493.416 511.703 493.318 511.278 493.318C510.811 493.318 510.407 493.434 510.065 493.666C509.727 493.895 509.467 494.193 509.285 494.561C509.102 494.929 509.011 495.323 509.011 495.744V496.42C509.011 496.997 509.111 497.486 509.31 497.887C509.512 498.285 509.792 498.588 510.15 498.797C510.508 499.002 510.924 499.105 511.398 499.105C511.706 499.105 511.984 499.062 512.233 498.976C512.485 498.886 512.702 498.754 512.884 498.578C513.066 498.399 513.207 498.177 513.307 497.912L514.44 498.23C514.321 498.615 514.12 498.953 513.839 499.244C513.557 499.533 513.209 499.758 512.795 499.92C512.38 500.08 511.915 500.159 511.398 500.159ZM519.228 500.159C518.592 500.159 518.03 499.998 517.543 499.677C517.055 499.352 516.674 498.895 516.399 498.305C516.124 497.711 515.986 497.01 515.986 496.202C515.986 495.4 516.124 494.704 516.399 494.114C516.674 493.524 517.057 493.068 517.547 492.746C518.038 492.425 518.605 492.264 519.248 492.264C519.745 492.264 520.138 492.347 520.426 492.513C520.718 492.675 520.94 492.861 521.092 493.07C521.248 493.275 521.369 493.444 521.455 493.577H521.555V489.818H522.728V500H521.594V498.827H521.455C521.369 498.966 521.246 499.142 521.087 499.354C520.928 499.562 520.701 499.75 520.406 499.915C520.111 500.078 519.718 500.159 519.228 500.159ZM519.387 499.105C519.858 499.105 520.255 498.982 520.58 498.737C520.905 498.489 521.152 498.146 521.321 497.708C521.49 497.267 521.574 496.759 521.574 496.182C521.574 495.612 521.492 495.113 521.326 494.685C521.16 494.254 520.915 493.92 520.59 493.681C520.265 493.439 519.864 493.318 519.387 493.318C518.89 493.318 518.476 493.446 518.144 493.701C517.816 493.953 517.569 494.296 517.403 494.73C517.241 495.161 517.16 495.645 517.16 496.182C517.16 496.725 517.243 497.219 517.408 497.663C517.577 498.104 517.826 498.455 518.154 498.717C518.485 498.976 518.896 499.105 519.387 499.105ZM532.378 492.364V493.358H528.261V492.364H532.378ZM529.494 500V491.31C529.494 490.872 529.597 490.508 529.802 490.216C530.008 489.924 530.275 489.705 530.603 489.56C530.931 489.414 531.277 489.341 531.642 489.341C531.93 489.341 532.166 489.364 532.348 489.411C532.53 489.457 532.666 489.5 532.756 489.54L532.418 490.554C532.358 490.534 532.275 490.509 532.169 490.479C532.066 490.45 531.93 490.435 531.761 490.435C531.373 490.435 531.093 490.532 530.921 490.728C530.752 490.924 530.668 491.21 530.668 491.588V500H529.494ZM536.81 500.159C536.121 500.159 535.516 499.995 534.995 499.667C534.478 499.339 534.074 498.88 533.782 498.29C533.494 497.7 533.35 497.01 533.35 496.222C533.35 495.426 533.494 494.732 533.782 494.138C534.074 493.545 534.478 493.085 534.995 492.756C535.516 492.428 536.121 492.264 536.81 492.264C537.499 492.264 538.103 492.428 538.62 492.756C539.14 493.085 539.544 493.545 539.833 494.138C540.124 494.732 540.27 495.426 540.27 496.222C540.27 497.01 540.124 497.7 539.833 498.29C539.544 498.88 539.14 499.339 538.62 499.667C538.103 499.995 537.499 500.159 536.81 500.159ZM536.81 499.105C537.334 499.105 537.764 498.971 538.103 498.702C538.441 498.434 538.691 498.081 538.853 497.643C539.016 497.206 539.097 496.732 539.097 496.222C539.097 495.711 539.016 495.236 538.853 494.795C538.691 494.354 538.441 493.998 538.103 493.726C537.764 493.454 537.334 493.318 536.81 493.318C536.286 493.318 535.855 493.454 535.517 493.726C535.179 493.998 534.929 494.354 534.767 494.795C534.604 495.236 534.523 495.711 534.523 496.222C534.523 496.732 534.604 497.206 534.767 497.643C534.929 498.081 535.179 498.434 535.517 498.702C535.855 498.971 536.286 499.105 536.81 499.105ZM542.061 500V492.364H543.195V493.517H543.274C543.413 493.139 543.665 492.833 544.03 492.597C544.395 492.362 544.805 492.244 545.263 492.244C545.349 492.244 545.457 492.246 545.586 492.249C545.715 492.253 545.813 492.258 545.879 492.264V493.457C545.84 493.447 545.748 493.433 545.606 493.413C545.467 493.389 545.319 493.378 545.163 493.378C544.792 493.378 544.461 493.456 544.169 493.612C543.881 493.764 543.652 493.976 543.483 494.248C543.317 494.516 543.234 494.823 543.234 495.168V500H542.061ZM559.56 493H558.327C558.254 492.645 558.126 492.334 557.944 492.065C557.765 491.797 557.546 491.571 557.288 491.389C557.033 491.204 556.749 491.064 556.438 490.972C556.126 490.879 555.801 490.832 555.463 490.832C554.847 490.832 554.288 490.988 553.788 491.3C553.291 491.611 552.895 492.07 552.6 492.677C552.308 493.283 552.162 494.027 552.162 494.909C552.162 495.791 552.308 496.535 552.6 497.141C552.895 497.748 553.291 498.207 553.788 498.518C554.288 498.83 554.847 498.986 555.463 498.986C555.801 498.986 556.126 498.939 556.438 498.847C556.749 498.754 557.033 498.616 557.288 498.434C557.546 498.248 557.765 498.021 557.944 497.753C558.126 497.481 558.254 497.17 558.327 496.818H559.56C559.467 497.339 559.298 497.804 559.053 498.215C558.808 498.626 558.503 498.976 558.138 499.264C557.773 499.549 557.364 499.766 556.91 499.915C556.459 500.065 555.977 500.139 555.463 500.139C554.595 500.139 553.823 499.927 553.147 499.503C552.47 499.079 551.938 498.475 551.551 497.693C551.163 496.911 550.969 495.983 550.969 494.909C550.969 493.835 551.163 492.907 551.551 492.125C551.938 491.343 552.47 490.74 553.147 490.315C553.823 489.891 554.595 489.679 555.463 489.679C555.977 489.679 556.459 489.754 556.91 489.903C557.364 490.052 557.773 490.271 558.138 490.559C558.503 490.844 558.808 491.192 559.053 491.603C559.298 492.011 559.467 492.476 559.56 493ZM566.206 496.878V492.364H567.379V500H566.206V498.707H566.126C565.947 499.095 565.669 499.425 565.291 499.697C564.913 499.965 564.436 500.099 563.859 500.099C563.382 500.099 562.958 499.995 562.586 499.786C562.215 499.574 561.924 499.256 561.711 498.832C561.499 498.404 561.393 497.866 561.393 497.216V492.364H562.566V497.136C562.566 497.693 562.722 498.137 563.034 498.469C563.349 498.8 563.75 498.966 564.237 498.966C564.529 498.966 564.825 498.891 565.127 498.742C565.432 498.593 565.687 498.364 565.892 498.056C566.101 497.748 566.206 497.355 566.206 496.878ZM570.701 489.818V500H569.528V489.818H570.701ZM576.171 492.364V493.358H572.214V492.364H576.171ZM573.367 490.534H574.541V497.812C574.541 498.144 574.589 498.393 574.685 498.558C574.784 498.721 574.91 498.83 575.063 498.886C575.218 498.939 575.382 498.966 575.555 498.966C575.684 498.966 575.79 498.959 575.873 498.946C575.956 498.929 576.022 498.916 576.072 498.906L576.31 499.96C576.231 499.99 576.12 500.02 575.977 500.05C575.835 500.083 575.654 500.099 575.435 500.099C575.104 500.099 574.779 500.028 574.461 499.886C574.146 499.743 573.884 499.526 573.676 499.234C573.47 498.943 573.367 498.575 573.367 498.131V490.534ZM578.259 500V489.818H584.364V490.912H579.492V494.352H583.907V495.446H579.492V500H578.259ZM586.317 500V492.364H587.49V500H586.317ZM586.914 491.091C586.685 491.091 586.488 491.013 586.322 490.857C586.16 490.701 586.078 490.514 586.078 490.295C586.078 490.077 586.16 489.889 586.322 489.734C586.488 489.578 586.685 489.5 586.914 489.5C587.142 489.5 587.338 489.578 587.5 489.734C587.666 489.889 587.749 490.077 587.749 490.295C587.749 490.514 587.666 490.701 587.5 490.857C587.338 491.013 587.142 491.091 586.914 491.091ZM592.96 492.364V493.358H589.003V492.364H592.96ZM590.156 490.534H591.33V497.812C591.33 498.144 591.378 498.393 591.474 498.558C591.573 498.721 591.699 498.83 591.852 498.886C592.007 498.939 592.171 498.966 592.344 498.966C592.473 498.966 592.579 498.959 592.662 498.946C592.745 498.929 592.811 498.916 592.861 498.906L593.1 499.96C593.02 499.99 592.909 500.02 592.766 500.05C592.624 500.083 592.443 500.099 592.225 500.099C591.893 500.099 591.568 500.028 591.25 499.886C590.935 499.743 590.673 499.526 590.465 499.234C590.259 498.943 590.156 498.575 590.156 498.131V490.534ZM598.822 500V489.818H602.262C603.058 489.818 603.711 489.954 604.221 490.226C604.731 490.494 605.109 490.864 605.354 491.335C605.6 491.805 605.722 492.34 605.722 492.94C605.722 493.54 605.6 494.072 605.354 494.536C605.109 495 604.733 495.365 604.226 495.63C603.719 495.892 603.071 496.023 602.282 496.023H599.498V494.909H602.242C602.786 494.909 603.223 494.83 603.555 494.67C603.89 494.511 604.131 494.286 604.281 493.994C604.433 493.699 604.509 493.348 604.509 492.94C604.509 492.533 604.433 492.176 604.281 491.871C604.128 491.567 603.885 491.331 603.55 491.165C603.215 490.996 602.773 490.912 602.222 490.912H600.055V500H598.822ZM603.614 495.426L606.12 500H604.688L602.222 495.426H603.614ZM610.737 500.159C610.002 500.159 609.367 499.997 608.833 499.672C608.303 499.344 607.894 498.886 607.605 498.3C607.32 497.71 607.178 497.024 607.178 496.241C607.178 495.459 607.32 494.77 607.605 494.173C607.894 493.573 608.295 493.106 608.809 492.771C609.326 492.433 609.929 492.264 610.618 492.264C611.016 492.264 611.409 492.33 611.796 492.463C612.184 492.596 612.537 492.811 612.855 493.109C613.174 493.404 613.427 493.795 613.616 494.283C613.805 494.77 613.899 495.37 613.899 496.082V496.58H608.013V495.565H612.706C612.706 495.134 612.62 494.75 612.448 494.412C612.279 494.074 612.037 493.807 611.722 493.612C611.41 493.416 611.042 493.318 610.618 493.318C610.151 493.318 609.746 493.434 609.405 493.666C609.067 493.895 608.807 494.193 608.625 494.561C608.442 494.929 608.351 495.323 608.351 495.744V496.42C608.351 496.997 608.451 497.486 608.649 497.887C608.852 498.285 609.132 498.588 609.49 498.797C609.848 499.002 610.264 499.105 610.737 499.105C611.046 499.105 611.324 499.062 611.573 498.976C611.825 498.886 612.042 498.754 612.224 498.578C612.406 498.399 612.547 498.177 612.647 497.912L613.78 498.23C613.661 498.615 613.46 498.953 613.179 499.244C612.897 499.533 612.549 499.758 612.134 499.92C611.72 500.08 611.255 500.159 610.737 500.159ZM617.414 500L615.088 492.364H616.321L617.971 498.21H618.051L619.681 492.364H620.934L622.545 498.19H622.625L624.275 492.364H625.508L623.181 500H622.028L620.358 494.134H620.238L618.568 500H617.414ZM629.306 500.179C628.822 500.179 628.383 500.088 627.989 499.906C627.594 499.72 627.281 499.453 627.049 499.105C626.817 498.754 626.701 498.33 626.701 497.832C626.701 497.395 626.787 497.04 626.96 496.768C627.132 496.493 627.362 496.278 627.651 496.122C627.939 495.966 628.257 495.85 628.605 495.774C628.957 495.695 629.31 495.632 629.664 495.585C630.128 495.526 630.505 495.481 630.793 495.451C631.085 495.418 631.297 495.363 631.429 495.287C631.565 495.211 631.633 495.078 631.633 494.889V494.849C631.633 494.359 631.499 493.978 631.23 493.706C630.965 493.434 630.563 493.298 630.022 493.298C629.462 493.298 629.023 493.421 628.705 493.666C628.387 493.911 628.163 494.173 628.034 494.452L626.92 494.054C627.119 493.59 627.384 493.229 627.715 492.97C628.05 492.708 628.415 492.526 628.809 492.423C629.207 492.317 629.598 492.264 629.983 492.264C630.228 492.264 630.509 492.294 630.828 492.354C631.149 492.41 631.459 492.528 631.757 492.707C632.059 492.886 632.309 493.156 632.508 493.517C632.707 493.878 632.806 494.362 632.806 494.969V500H631.633V498.966H631.573C631.494 499.132 631.361 499.309 631.176 499.498C630.99 499.687 630.743 499.848 630.435 499.98C630.127 500.113 629.751 500.179 629.306 500.179ZM629.485 499.125C629.949 499.125 630.34 499.034 630.659 498.852C630.98 498.669 631.222 498.434 631.384 498.146C631.55 497.857 631.633 497.554 631.633 497.236V496.162C631.583 496.222 631.474 496.276 631.305 496.326C631.139 496.372 630.947 496.414 630.728 496.45C630.513 496.483 630.302 496.513 630.097 496.54C629.895 496.563 629.731 496.583 629.605 496.599C629.3 496.639 629.015 496.704 628.75 496.793C628.488 496.879 628.276 497.01 628.113 497.186C627.954 497.358 627.875 497.594 627.875 497.892C627.875 498.3 628.025 498.608 628.327 498.817C628.632 499.022 629.018 499.125 629.485 499.125ZM634.948 500V492.364H636.081V493.517H636.161C636.3 493.139 636.552 492.833 636.917 492.597C637.281 492.362 637.692 492.244 638.15 492.244C638.236 492.244 638.343 492.246 638.473 492.249C638.602 492.253 638.7 492.258 638.766 492.264V493.457C638.726 493.447 638.635 493.433 638.493 493.413C638.353 493.389 638.206 493.378 638.05 493.378C637.679 493.378 637.348 493.456 637.056 493.612C636.767 493.764 636.539 493.976 636.37 494.248C636.204 494.516 636.121 494.823 636.121 495.168V500H634.948ZM642.808 500.159C642.172 500.159 641.61 499.998 641.123 499.677C640.635 499.352 640.254 498.895 639.979 498.305C639.704 497.711 639.566 497.01 639.566 496.202C639.566 495.4 639.704 494.704 639.979 494.114C640.254 493.524 640.637 493.068 641.128 492.746C641.618 492.425 642.185 492.264 642.828 492.264C643.325 492.264 643.718 492.347 644.006 492.513C644.298 492.675 644.52 492.861 644.672 493.07C644.828 493.275 644.949 493.444 645.035 493.577H645.135V489.818H646.308V500H645.174V498.827H645.035C644.949 498.966 644.826 499.142 644.667 499.354C644.508 499.562 644.281 499.75 643.986 499.915C643.691 500.078 643.299 500.159 642.808 500.159ZM642.967 499.105C643.438 499.105 643.835 498.982 644.16 498.737C644.485 498.489 644.732 498.146 644.901 497.708C645.07 497.267 645.155 496.759 645.155 496.182C645.155 495.612 645.072 495.113 644.906 494.685C644.74 494.254 644.495 493.92 644.17 493.681C643.845 493.439 643.444 493.318 642.967 493.318C642.47 493.318 642.056 493.446 641.724 493.701C641.396 493.953 641.149 494.296 640.983 494.73C640.821 495.161 640.74 495.645 640.74 496.182C640.74 496.725 640.823 497.219 640.988 497.663C641.157 498.104 641.406 498.455 641.734 498.717C642.066 498.976 642.477 499.105 642.967 499.105ZM654.029 494.074L652.975 494.372C652.909 494.196 652.811 494.026 652.682 493.86C652.556 493.691 652.383 493.552 652.165 493.442C651.946 493.333 651.666 493.278 651.324 493.278C650.857 493.278 650.468 493.386 650.156 493.602C649.848 493.814 649.694 494.084 649.694 494.412C649.694 494.704 649.8 494.934 650.012 495.103C650.224 495.272 650.555 495.413 651.006 495.526L652.14 495.804C652.822 495.97 653.331 496.223 653.666 496.565C654.001 496.903 654.168 497.339 654.168 497.872C654.168 498.31 654.042 498.701 653.79 499.045C653.542 499.39 653.194 499.662 652.746 499.861C652.299 500.06 651.778 500.159 651.185 500.159C650.406 500.159 649.762 499.99 649.251 499.652C648.741 499.314 648.418 498.82 648.282 498.17L649.395 497.892C649.501 498.303 649.702 498.611 649.997 498.817C650.295 499.022 650.685 499.125 651.165 499.125C651.712 499.125 652.146 499.009 652.468 498.777C652.793 498.542 652.955 498.26 652.955 497.932C652.955 497.667 652.862 497.445 652.677 497.266C652.491 497.083 652.206 496.947 651.821 496.858L650.549 496.56C649.849 496.394 649.336 496.137 649.008 495.789C648.683 495.438 648.52 494.999 648.52 494.472C648.52 494.041 648.641 493.66 648.883 493.328C649.129 492.997 649.462 492.737 649.883 492.548C650.307 492.359 650.787 492.264 651.324 492.264C652.08 492.264 652.673 492.43 653.104 492.761C653.538 493.093 653.847 493.53 654.029 494.074Z" fill="white"/>
</g>
<g filter="url(#filter8_b_796_4804)">
<rect x="29" y="534" width="245" height="69" rx="20" fill="white" fill-opacity="0.1"/>
<rect x="29" y="534" width="245" height="69" rx="20" fill="url(#paint28_linear_796_4804)" fill-opacity="0.4"/>
<rect x="30" y="535" width="243" height="67" rx="19" stroke="url(#paint29_linear_796_4804)" stroke-opacity="0.6" stroke-width="2"/>
<circle cx="55" cy="560" r="14.5625" fill="url(#paint30_linear_796_4804)"/>
<circle cx="55" cy="560" r="14.5625" fill="url(#paint31_linear_796_4804)"/>
<circle cx="55" cy="560" r="14.5625" stroke="url(#paint32_linear_796_4804)" stroke-width="0.875"/>
<circle cx="55" cy="560" r="10.1875" fill="url(#paint33_linear_796_4804)" stroke="url(#paint34_linear_796_4804)" stroke-width="0.875"/>
<g filter="url(#filter9_i_796_4804)">
<path d="M50.9487 565.458C50.8509 565.458 50.7629 565.424 50.6847 565.355C50.6163 565.287 50.582 565.199 50.582 565.091V555.558C50.582 555.451 50.6163 555.363 50.6847 555.294C50.7629 555.226 50.8509 555.191 50.9487 555.191H52.3127C52.4594 555.191 52.5669 555.231 52.6354 555.309C52.7136 555.387 52.7674 555.446 52.7967 555.485L55.4954 560.457L58.2234 555.485C58.2429 555.446 58.2869 555.387 58.3554 555.309C58.4336 555.231 58.546 555.191 58.6927 555.191H60.0567C60.1643 555.191 60.2523 555.226 60.3207 555.294C60.3891 555.363 60.4234 555.451 60.4234 555.558V565.091C60.4234 565.199 60.3891 565.287 60.3207 565.355C60.2523 565.424 60.1643 565.458 60.0567 565.458H58.5607C58.4629 565.458 58.3798 565.424 58.3114 565.355C58.2429 565.287 58.2087 565.199 58.2087 565.091V559.166L56.346 562.657C56.2971 562.745 56.2336 562.823 56.1554 562.891C56.0771 562.96 55.9745 562.994 55.8474 562.994H55.158C55.0309 562.994 54.9283 562.96 54.85 562.891C54.7718 562.823 54.7083 562.745 54.6594 562.657L52.7967 559.166V565.091C52.7967 565.199 52.7625 565.287 52.694 565.355C52.6256 565.424 52.5425 565.458 52.4447 565.458H50.9487Z" fill="url(#paint35_linear_796_4804)"/>
</g>
<path d="M83.8253 567L90.0114 554.756V554.656H82.831V552.455H92.7386V554.706L86.5597 567H83.8253ZM100.095 567.277C98.9253 567.277 97.9215 566.981 97.0835 566.389C96.2501 565.793 95.6085 564.933 95.1587 563.811C94.7137 562.684 94.4911 561.328 94.4911 559.741C94.4959 558.155 94.7208 556.806 95.1658 555.693C95.6156 554.576 96.2572 553.723 97.0906 553.136C97.9286 552.549 98.93 552.256 100.095 552.256C101.26 552.256 102.261 552.549 103.099 553.136C103.937 553.723 104.579 554.576 105.024 555.693C105.474 556.811 105.699 558.16 105.699 559.741C105.699 561.332 105.474 562.691 105.024 563.818C104.579 564.94 103.937 565.797 103.099 566.389C102.266 566.981 101.264 567.277 100.095 567.277ZM100.095 565.054C101.004 565.054 101.721 564.607 102.247 563.712C102.777 562.812 103.042 561.489 103.042 559.741C103.042 558.586 102.922 557.616 102.68 556.83C102.439 556.044 102.098 555.452 101.657 555.054C101.217 554.652 100.696 554.45 100.095 554.45C99.1905 554.45 98.4755 554.9 97.9499 555.8C97.4244 556.695 97.1592 558.009 97.1545 559.741C97.1497 560.902 97.2657 561.877 97.5025 562.668C97.744 563.458 98.0849 564.055 98.5252 564.457C98.9656 564.855 99.4888 565.054 100.095 565.054ZM113.435 567.277C112.265 567.277 111.261 566.981 110.423 566.389C109.59 565.793 108.948 564.933 108.499 563.811C108.054 562.684 107.831 561.328 107.831 559.741C107.836 558.155 108.061 556.806 108.506 555.693C108.955 554.576 109.597 553.723 110.43 553.136C111.268 552.549 112.27 552.256 113.435 552.256C114.599 552.256 115.601 552.549 116.439 553.136C117.277 553.723 117.919 554.576 118.364 555.693C118.813 556.811 119.038 558.16 119.038 559.741C119.038 561.332 118.813 562.691 118.364 563.818C117.919 564.94 117.277 565.797 116.439 566.389C115.606 566.981 114.604 567.277 113.435 567.277ZM113.435 565.054C114.344 565.054 115.061 564.607 115.587 563.712C116.117 562.812 116.382 561.489 116.382 559.741C116.382 558.586 116.261 557.616 116.02 556.83C115.778 556.044 115.438 555.452 114.997 555.054C114.557 554.652 114.036 554.45 113.435 554.45C112.53 554.45 111.815 554.9 111.29 555.8C110.764 556.695 110.499 558.009 110.494 559.741C110.49 560.902 110.606 561.877 110.842 562.668C111.084 563.458 111.425 564.055 111.865 564.457C112.305 564.855 112.829 565.054 113.435 565.054Z" fill="white"/>
<path d="M82.6761 579.912V578.818H90.3125V579.912H87.1108V589H85.8778V579.912H82.6761ZM91.2633 589V581.364H92.3968V582.517H92.4764C92.6156 582.139 92.8675 581.833 93.2321 581.597C93.5967 581.362 94.0076 581.244 94.465 581.244C94.5512 581.244 94.6589 581.246 94.7882 581.249C94.9174 581.253 95.0152 581.258 95.0815 581.264V582.457C95.0417 582.447 94.9506 582.433 94.8081 582.413C94.6689 582.389 94.5214 582.378 94.3656 582.378C93.9944 582.378 93.6629 582.456 93.3713 582.612C93.0829 582.764 92.8542 582.976 92.6852 583.248C92.5195 583.516 92.4366 583.823 92.4366 584.168V589H91.2633ZM98.7195 589.179C98.2356 589.179 97.7964 589.088 97.402 588.906C97.0076 588.72 96.6944 588.453 96.4624 588.105C96.2304 587.754 96.1143 587.33 96.1143 586.832C96.1143 586.395 96.2005 586.04 96.3729 585.768C96.5452 585.493 96.7756 585.278 97.0639 585.122C97.3523 584.966 97.6705 584.85 98.0185 584.774C98.3698 584.695 98.7228 584.632 99.0774 584.585C99.5414 584.526 99.9176 584.481 100.206 584.451C100.498 584.418 100.71 584.363 100.842 584.287C100.978 584.211 101.046 584.078 101.046 583.889V583.849C101.046 583.359 100.912 582.978 100.643 582.706C100.378 582.434 99.9756 582.298 99.4354 582.298C98.8752 582.298 98.4361 582.421 98.1179 582.666C97.7997 582.911 97.576 583.173 97.4467 583.452L96.3331 583.054C96.532 582.59 96.7971 582.229 97.1286 581.97C97.4633 581.708 97.8279 581.526 98.2223 581.423C98.62 581.317 99.0111 581.264 99.3956 581.264C99.6409 581.264 99.9226 581.294 100.241 581.354C100.562 581.41 100.872 581.528 101.17 581.707C101.472 581.886 101.722 582.156 101.921 582.517C102.12 582.878 102.219 583.362 102.219 583.969V589H101.046V587.966H100.987C100.907 588.132 100.774 588.309 100.589 588.498C100.403 588.687 100.156 588.848 99.848 588.98C99.5398 589.113 99.1636 589.179 98.7195 589.179ZM98.8984 588.125C99.3625 588.125 99.7536 588.034 100.072 587.852C100.393 587.669 100.635 587.434 100.798 587.146C100.963 586.857 101.046 586.554 101.046 586.236V585.162C100.996 585.222 100.887 585.276 100.718 585.326C100.552 585.372 100.36 585.414 100.141 585.45C99.9259 585.483 99.7154 585.513 99.5099 585.54C99.3078 585.563 99.1437 585.583 99.0178 585.599C98.7128 585.639 98.4278 585.704 98.1626 585.793C97.9008 585.879 97.6887 586.01 97.5263 586.186C97.3672 586.358 97.2876 586.594 97.2876 586.892C97.2876 587.3 97.4384 587.608 97.7401 587.817C98.045 588.022 98.4311 588.125 98.8984 588.125ZM107.244 589.159C106.608 589.159 106.046 588.998 105.559 588.677C105.072 588.352 104.691 587.895 104.416 587.305C104.141 586.711 104.003 586.01 104.003 585.202C104.003 584.4 104.141 583.704 104.416 583.114C104.691 582.524 105.074 582.068 105.564 581.746C106.055 581.425 106.621 581.264 107.264 581.264C107.762 581.264 108.154 581.347 108.443 581.513C108.734 581.675 108.956 581.861 109.109 582.07C109.265 582.275 109.386 582.444 109.472 582.577H109.571V578.818H110.744V589H109.611V587.827H109.472C109.386 587.966 109.263 588.142 109.104 588.354C108.945 588.562 108.718 588.75 108.423 588.915C108.128 589.078 107.735 589.159 107.244 589.159ZM107.404 588.105C107.874 588.105 108.272 587.982 108.597 587.737C108.922 587.489 109.169 587.146 109.338 586.708C109.507 586.267 109.591 585.759 109.591 585.182C109.591 584.612 109.508 584.113 109.343 583.685C109.177 583.254 108.932 582.92 108.607 582.681C108.282 582.439 107.881 582.318 107.404 582.318C106.906 582.318 106.492 582.446 106.161 582.701C105.833 582.953 105.586 583.296 105.42 583.73C105.258 584.161 105.176 584.645 105.176 585.182C105.176 585.725 105.259 586.219 105.425 586.663C105.594 587.104 105.843 587.455 106.171 587.717C106.502 587.976 106.913 588.105 107.404 588.105ZM116.258 589.159C115.522 589.159 114.887 588.997 114.354 588.672C113.824 588.344 113.414 587.886 113.126 587.3C112.841 586.71 112.698 586.024 112.698 585.241C112.698 584.459 112.841 583.77 113.126 583.173C113.414 582.573 113.815 582.106 114.329 581.771C114.846 581.433 115.449 581.264 116.139 581.264C116.536 581.264 116.929 581.33 117.317 581.463C117.705 581.596 118.058 581.811 118.376 582.109C118.694 582.404 118.948 582.795 119.137 583.283C119.325 583.77 119.42 584.37 119.42 585.082V585.58H113.534V584.565H118.227C118.227 584.134 118.141 583.75 117.968 583.412C117.799 583.074 117.557 582.807 117.242 582.612C116.931 582.416 116.563 582.318 116.139 582.318C115.671 582.318 115.267 582.434 114.926 582.666C114.588 582.895 114.327 583.193 114.145 583.561C113.963 583.929 113.872 584.323 113.872 584.744V585.42C113.872 585.997 113.971 586.486 114.17 586.887C114.372 587.285 114.652 587.588 115.01 587.797C115.368 588.002 115.784 588.105 116.258 588.105C116.566 588.105 116.845 588.062 117.093 587.976C117.345 587.886 117.562 587.754 117.744 587.578C117.927 587.399 118.068 587.177 118.167 586.912L119.301 587.23C119.181 587.615 118.981 587.953 118.699 588.244C118.417 588.533 118.069 588.758 117.655 588.92C117.241 589.08 116.775 589.159 116.258 589.159ZM124.088 589.159C123.452 589.159 122.89 588.998 122.403 588.677C121.916 588.352 121.535 587.895 121.259 587.305C120.984 586.711 120.847 586.01 120.847 585.202C120.847 584.4 120.984 583.704 121.259 583.114C121.535 582.524 121.917 582.068 122.408 581.746C122.898 581.425 123.465 581.264 124.108 581.264C124.605 581.264 124.998 581.347 125.286 581.513C125.578 581.675 125.8 581.861 125.953 582.07C126.108 582.275 126.229 582.444 126.316 582.577H126.415V578.818H127.588V589H126.455V587.827H126.316C126.229 587.966 126.107 588.142 125.948 588.354C125.789 588.562 125.561 588.75 125.267 588.915C124.972 589.078 124.579 589.159 124.088 589.159ZM124.247 588.105C124.718 588.105 125.116 587.982 125.441 587.737C125.765 587.489 126.012 587.146 126.181 586.708C126.35 586.267 126.435 585.759 126.435 585.182C126.435 584.612 126.352 584.113 126.186 583.685C126.021 583.254 125.775 582.92 125.45 582.681C125.126 582.439 124.725 582.318 124.247 582.318C123.75 582.318 123.336 582.446 123.004 582.701C122.676 582.953 122.429 583.296 122.264 583.73C122.101 584.161 122.02 584.645 122.02 585.182C122.02 585.725 122.103 586.219 122.269 586.663C122.438 587.104 122.686 587.455 123.014 587.717C123.346 587.976 123.757 588.105 124.247 588.105ZM133.838 589V581.364H135.011V589H133.838ZM134.434 580.091C134.205 580.091 134.008 580.013 133.843 579.857C133.68 579.701 133.599 579.514 133.599 579.295C133.599 579.077 133.68 578.889 133.843 578.734C134.008 578.578 134.205 578.5 134.434 578.5C134.663 578.5 134.858 578.578 135.021 578.734C135.186 578.889 135.269 579.077 135.269 579.295C135.269 579.514 135.186 579.701 135.021 579.857C134.858 580.013 134.663 580.091 134.434 580.091ZM138.333 584.406V589H137.16V581.364H138.293V582.557H138.393C138.572 582.169 138.844 581.857 139.208 581.622C139.573 581.384 140.043 581.264 140.62 581.264C141.137 581.264 141.589 581.37 141.977 581.582C142.365 581.791 142.667 582.109 142.882 582.537C143.098 582.961 143.205 583.498 143.205 584.148V589H142.032V584.227C142.032 583.627 141.876 583.16 141.565 582.825C141.253 582.487 140.826 582.318 140.282 582.318C139.907 582.318 139.573 582.399 139.278 582.562C138.986 582.724 138.756 582.961 138.587 583.273C138.418 583.584 138.333 583.962 138.333 584.406ZM152.687 581.364V582.358H148.571V581.364H152.687ZM149.804 589V580.31C149.804 579.872 149.907 579.508 150.112 579.216C150.318 578.924 150.584 578.705 150.912 578.56C151.241 578.414 151.587 578.341 151.952 578.341C152.24 578.341 152.475 578.364 152.657 578.411C152.84 578.457 152.976 578.5 153.065 578.54L152.727 579.554C152.667 579.534 152.585 579.509 152.479 579.479C152.376 579.45 152.24 579.435 152.071 579.435C151.683 579.435 151.403 579.532 151.231 579.728C151.062 579.924 150.977 580.21 150.977 580.588V589H149.804ZM157.119 589.159C156.43 589.159 155.825 588.995 155.305 588.667C154.788 588.339 154.383 587.88 154.092 587.29C153.803 586.7 153.659 586.01 153.659 585.222C153.659 584.426 153.803 583.732 154.092 583.138C154.383 582.545 154.788 582.085 155.305 581.756C155.825 581.428 156.43 581.264 157.119 581.264C157.809 581.264 158.412 581.428 158.929 581.756C159.45 582.085 159.854 582.545 160.142 583.138C160.434 583.732 160.58 584.426 160.58 585.222C160.58 586.01 160.434 586.7 160.142 587.29C159.854 587.88 159.45 588.339 158.929 588.667C158.412 588.995 157.809 589.159 157.119 589.159ZM157.119 588.105C157.643 588.105 158.074 587.971 158.412 587.702C158.75 587.434 159 587.081 159.163 586.643C159.325 586.206 159.406 585.732 159.406 585.222C159.406 584.711 159.325 584.236 159.163 583.795C159 583.354 158.75 582.998 158.412 582.726C158.074 582.454 157.643 582.318 157.119 582.318C156.596 582.318 156.165 582.454 155.827 582.726C155.489 582.998 155.239 583.354 155.076 583.795C154.914 584.236 154.833 584.711 154.833 585.222C154.833 585.732 154.914 586.206 155.076 586.643C155.239 587.081 155.489 587.434 155.827 587.702C156.165 587.971 156.596 588.105 157.119 588.105ZM162.371 589V581.364H163.504V582.517H163.584C163.723 582.139 163.975 581.833 164.339 581.597C164.704 581.362 165.115 581.244 165.572 581.244C165.659 581.244 165.766 581.246 165.896 581.249C166.025 581.253 166.123 581.258 166.189 581.264V582.457C166.149 582.447 166.058 582.433 165.915 582.413C165.776 582.389 165.629 582.378 165.473 582.378C165.102 582.378 164.77 582.456 164.479 582.612C164.19 582.764 163.962 582.976 163.793 583.248C163.627 583.516 163.544 583.823 163.544 584.168V589H162.371ZM171.676 589V578.818H172.909V583.352H178.338V578.818H179.571V589H178.338V584.446H172.909V589H171.676ZM184.764 589.139C184.095 589.139 183.518 589.017 183.034 588.771C182.55 588.526 182.177 588.19 181.915 587.762C181.653 587.335 181.523 586.846 181.523 586.295C181.523 585.871 181.612 585.495 181.791 585.167C181.973 584.835 182.224 584.529 182.542 584.247C182.863 583.962 183.233 583.677 183.65 583.392L185.122 582.298C185.41 582.109 185.641 581.907 185.813 581.692C185.989 581.476 186.077 581.195 186.077 580.847C186.077 580.588 185.962 580.338 185.733 580.096C185.508 579.854 185.211 579.733 184.844 579.733C184.585 579.733 184.356 579.799 184.157 579.932C183.962 580.061 183.808 580.227 183.695 580.429C183.586 580.628 183.531 580.833 183.531 581.045C183.531 581.284 183.596 581.526 183.725 581.771C183.858 582.013 184.025 582.262 184.227 582.517C184.433 582.769 184.645 583.027 184.863 583.293L189.537 589H188.125L184.267 584.347C183.909 583.916 183.584 583.525 183.292 583.173C183.001 582.822 182.769 582.476 182.596 582.134C182.424 581.793 182.338 581.423 182.338 581.026C182.338 580.568 182.439 580.167 182.641 579.822C182.847 579.474 183.133 579.204 183.501 579.012C183.872 578.817 184.307 578.719 184.804 578.719C185.314 578.719 185.753 578.818 186.121 579.017C186.489 579.213 186.773 579.473 186.971 579.798C187.17 580.119 187.27 580.469 187.27 580.847C187.27 581.334 187.149 581.756 186.907 582.114C186.665 582.472 186.335 582.805 185.917 583.114L183.889 584.625C183.432 584.963 183.122 585.291 182.959 585.609C182.797 585.928 182.716 586.156 182.716 586.295C182.716 586.614 182.799 586.91 182.964 587.185C183.13 587.46 183.364 587.683 183.665 587.852C183.967 588.021 184.32 588.105 184.724 588.105C185.109 588.105 185.483 588.024 185.848 587.862C186.212 587.696 186.542 587.457 186.837 587.146C187.135 586.834 187.371 586.46 187.543 586.022C187.719 585.585 187.807 585.092 187.807 584.545H188.94C188.94 585.222 188.862 585.773 188.706 586.201C188.551 586.629 188.375 586.963 188.18 587.205C187.984 587.447 187.827 587.628 187.707 587.747C187.667 587.797 187.631 587.847 187.598 587.896C187.565 587.946 187.528 587.996 187.488 588.045C187.16 588.413 186.746 588.688 186.246 588.871C185.745 589.05 185.251 589.139 184.764 589.139ZM190.995 578.818H192.466L195.926 587.27H196.046L199.506 578.818H200.978V589H199.824V581.264H199.725L196.543 589H195.429L192.248 581.264H192.148V589H190.995V578.818ZM210.33 589.159C209.641 589.159 209.036 588.995 208.516 588.667C207.999 588.339 207.594 587.88 207.303 587.29C207.014 586.7 206.87 586.01 206.87 585.222C206.87 584.426 207.014 583.732 207.303 583.138C207.594 582.545 207.999 582.085 208.516 581.756C209.036 581.428 209.641 581.264 210.33 581.264C211.02 581.264 211.623 581.428 212.14 581.756C212.66 582.085 213.065 582.545 213.353 583.138C213.645 583.732 213.791 584.426 213.791 585.222C213.791 586.01 213.645 586.7 213.353 587.29C213.065 587.88 212.66 588.339 212.14 588.667C211.623 588.995 211.02 589.159 210.33 589.159ZM210.33 588.105C210.854 588.105 211.285 587.971 211.623 587.702C211.961 587.434 212.211 587.081 212.374 586.643C212.536 586.206 212.617 585.732 212.617 585.222C212.617 584.711 212.536 584.236 212.374 583.795C212.211 583.354 211.961 582.998 211.623 582.726C211.285 582.454 210.854 582.318 210.33 582.318C209.807 582.318 209.376 582.454 209.038 582.726C208.7 582.998 208.45 583.354 208.287 583.795C208.125 584.236 208.044 584.711 208.044 585.222C208.044 585.732 208.125 586.206 208.287 586.643C208.45 587.081 208.7 587.434 209.038 587.702C209.376 587.971 209.807 588.105 210.33 588.105ZM218.982 581.364V582.358H214.866V581.364H218.982ZM216.099 589V580.31C216.099 579.872 216.201 579.508 216.407 579.216C216.612 578.924 216.879 578.705 217.207 578.56C217.536 578.414 217.882 578.341 218.246 578.341C218.535 578.341 218.77 578.364 218.952 578.411C219.135 578.457 219.271 578.5 219.36 578.54L219.022 579.554C218.962 579.534 218.879 579.509 218.773 579.479C218.671 579.45 218.535 579.435 218.366 579.435C217.978 579.435 217.698 579.532 217.526 579.728C217.357 579.924 217.272 580.21 217.272 580.588V589H216.099ZM224.027 581.364V582.358H219.911V581.364H224.027ZM221.144 589V580.31C221.144 579.872 221.246 579.508 221.452 579.216C221.657 578.924 221.924 578.705 222.252 578.56C222.58 578.414 222.927 578.341 223.291 578.341C223.58 578.341 223.815 578.364 223.997 578.411C224.18 578.457 224.316 578.5 224.405 578.54L224.067 579.554C224.007 579.534 223.924 579.509 223.818 579.479C223.716 579.45 223.58 579.435 223.411 579.435C223.023 579.435 222.743 579.532 222.57 579.728C222.401 579.924 222.317 580.21 222.317 580.588V589H221.144ZM228.559 589.159C227.823 589.159 227.188 588.997 226.655 588.672C226.124 588.344 225.715 587.886 225.427 587.3C225.142 586.71 224.999 586.024 224.999 585.241C224.999 584.459 225.142 583.77 225.427 583.173C225.715 582.573 226.116 582.106 226.63 581.771C227.147 581.433 227.75 581.264 228.439 581.264C228.837 581.264 229.23 581.33 229.618 581.463C230.006 581.596 230.358 581.811 230.677 582.109C230.995 582.404 231.248 582.795 231.437 583.283C231.626 583.77 231.721 584.37 231.721 585.082V585.58H225.834V584.565H230.528C230.528 584.134 230.441 583.75 230.269 583.412C230.1 583.074 229.858 582.807 229.543 582.612C229.232 582.416 228.864 582.318 228.439 582.318C227.972 582.318 227.568 582.434 227.226 582.666C226.888 582.895 226.628 583.193 226.446 583.561C226.264 583.929 226.172 584.323 226.172 584.744V585.42C226.172 585.997 226.272 586.486 226.471 586.887C226.673 587.285 226.953 587.588 227.311 587.797C227.669 588.002 228.085 588.105 228.559 588.105C228.867 588.105 229.145 588.062 229.394 587.976C229.646 587.886 229.863 587.754 230.045 587.578C230.228 587.399 230.368 587.177 230.468 586.912L231.601 587.23C231.482 587.615 231.282 587.953 231 588.244C230.718 588.533 230.37 588.758 229.956 588.92C229.541 589.08 229.076 589.159 228.559 589.159ZM233.506 589V581.364H234.639V582.517H234.719C234.858 582.139 235.11 581.833 235.474 581.597C235.839 581.362 236.25 581.244 236.707 581.244C236.793 581.244 236.901 581.246 237.03 581.249C237.16 581.253 237.257 581.258 237.324 581.264V582.457C237.284 582.447 237.193 582.433 237.05 582.413C236.911 582.389 236.764 582.378 236.608 582.378C236.237 582.378 235.905 582.456 235.613 582.612C235.325 582.764 235.096 582.976 234.927 583.248C234.762 583.516 234.679 583.823 234.679 584.168V589H233.506ZM244.124 583.074L243.07 583.372C243.003 583.196 242.906 583.026 242.776 582.86C242.65 582.691 242.478 582.552 242.259 582.442C242.04 582.333 241.76 582.278 241.419 582.278C240.952 582.278 240.562 582.386 240.251 582.602C239.942 582.814 239.788 583.084 239.788 583.412C239.788 583.704 239.894 583.934 240.107 584.103C240.319 584.272 240.65 584.413 241.101 584.526L242.234 584.804C242.917 584.97 243.426 585.223 243.761 585.565C244.095 585.903 244.263 586.339 244.263 586.872C244.263 587.31 244.137 587.701 243.885 588.045C243.636 588.39 243.288 588.662 242.841 588.861C242.393 589.06 241.873 589.159 241.28 589.159C240.501 589.159 239.856 588.99 239.346 588.652C238.835 588.314 238.512 587.82 238.376 587.17L239.49 586.892C239.596 587.303 239.797 587.611 240.092 587.817C240.39 588.022 240.779 588.125 241.26 588.125C241.807 588.125 242.241 588.009 242.562 587.777C242.887 587.542 243.05 587.26 243.05 586.932C243.05 586.667 242.957 586.445 242.771 586.266C242.586 586.083 242.301 585.947 241.916 585.858L240.643 585.56C239.944 585.394 239.43 585.137 239.102 584.789C238.777 584.438 238.615 583.999 238.615 583.472C238.615 583.041 238.736 582.66 238.978 582.328C239.223 581.997 239.556 581.737 239.977 581.548C240.402 581.359 240.882 581.264 241.419 581.264C242.175 581.264 242.768 581.43 243.199 581.761C243.633 582.093 243.941 582.53 244.124 583.074Z" fill="white"/>
</g>
<defs>
<filter id="filter0_d_796_4804" x="76.332" y="455.816" width="91.2061" height="117.153" filterUnits="userSpaceOnUse" color-interpolation-filters="sRGB">
<feFlood flood-opacity="0" result="BackgroundImageFix"/>
<feColorMatrix in="SourceAlpha" type="matrix" values="0 0 0 0 0 0 0 0 0 0 0 0 0 0 0 0 0 0 127 0" result="hardAlpha"/>
<feOffset dy="-4"/>
<feGaussianBlur stdDeviation="12"/>
<feComposite in2="hardAlpha" operator="out"/>
<feColorMatrix type="matrix" values="0 0 0 0 0.47451 0 0 0 0 0.407843 0 0 0 0 0.156863 0 0 0 0.5 0"/>
<feBlend mode="normal" in2="BackgroundImageFix" result="effect1_dropShadow_796_4804"/>
<feBlend mode="normal" in="SourceGraphic" in2="effect1_dropShadow_796_4804" result="shape"/>
</filter>
<filter id="filter1_d_796_4804" x="299" y="486" width="82" height="121" filterUnits="userSpaceOnUse" color-interpolation-filters="sRGB">
<feFlood flood-opacity="0" result="BackgroundImageFix"/>
<feColorMatrix in="SourceAlpha" type="matrix" values="0 0 0 0 0 0 0 0 0 0 0 0 0 0 0 0 0 0 127 0" result="hardAlpha"/>
<feOffset dy="-4"/>
<feGaussianBlur stdDeviation="12"/>
<feComposite in2="hardAlpha" operator="out"/>
<feColorMatrix type="matrix" values="0 0 0 0 0.47451 0 0 0 0 0.407843 0 0 0 0 0.156863 0 0 0 0.5 0"/>
<feBlend mode="normal" in2="BackgroundImageFix" result="effect1_dropShadow_796_4804"/>
<feBlend mode="normal" in="SourceGraphic" in2="effect1_dropShadow_796_4804" result="shape"/>
</filter>
<filter id="filter2_d_796_4804" x="429.704" y="458.101" width="85.1309" height="113.003" filterUnits="userSpaceOnUse" color-interpolation-filters="sRGB">
<feFlood flood-opacity="0" result="BackgroundImageFix"/>
<feColorMatrix in="SourceAlpha" type="matrix" values="0 0 0 0 0 0 0 0 0 0 0 0 0 0 0 0 0 0 127 0" result="hardAlpha"/>
<feOffset dy="-4"/>
<feGaussianBlur stdDeviation="12"/>
<feComposite in2="hardAlpha" operator="out"/>
<feColorMatrix type="matrix" values="0 0 0 0 0.47451 0 0 0 0 0.407843 0 0 0 0 0.156863 0 0 0 0.5 0"/>
<feBlend mode="normal" in2="BackgroundImageFix" result="effect1_dropShadow_796_4804"/>
<feBlend mode="normal" in="SourceGraphic" in2="effect1_dropShadow_796_4804" result="shape"/>
</filter>
<filter id="filter3_d_796_4804" x="505.264" y="467.897" width="88.1494" height="113.659" filterUnits="userSpaceOnUse" color-interpolation-filters="sRGB">
<feFlood flood-opacity="0" result="BackgroundImageFix"/>
<feColorMatrix in="SourceAlpha" type="matrix" values="0 0 0 0 0 0 0 0 0 0 0 0 0 0 0 0 0 0 127 0" result="hardAlpha"/>
<feOffset dy="-4"/>
<feGaussianBlur stdDeviation="12"/>
<feComposite in2="hardAlpha" operator="out"/>
<feColorMatrix type="matrix" values="0 0 0 0 0.47451 0 0 0 0 0.407843 0 0 0 0 0.156863 0 0 0 0.5 0"/>
<feBlend mode="normal" in2="BackgroundImageFix" result="effect1_dropShadow_796_4804"/>
<feBlend mode="normal" in="SourceGraphic" in2="effect1_dropShadow_796_4804" result="shape"/>
</filter>
<filter id="filter4_b_796_4804" x="421.15" y="134.051" width="208.85" height="189.154" filterUnits="userSpaceOnUse" color-interpolation-filters="sRGB">
<feFlood flood-opacity="0" result="BackgroundImageFix"/>
<feGaussianBlur in="BackgroundImageFix" stdDeviation="12"/>
<feComposite in2="SourceAlpha" operator="in" result="effect1_backgroundBlur_796_4804"/>
<feBlend mode="normal" in="SourceGraphic" in2="effect1_backgroundBlur_796_4804" result="shape"/>
</filter>
<filter id="filter5_b_796_4804" x="201.176" y="176.689" width="269.104" height="239.092" filterUnits="userSpaceOnUse" color-interpolation-filters="sRGB">
<feFlood flood-opacity="0" result="BackgroundImageFix"/>
<feGaussianBlur in="BackgroundImageFix" stdDeviation="6"/>
<feComposite in2="SourceAlpha" operator="in" result="effect1_backgroundBlur_796_4804"/>
<feBlend mode="normal" in="SourceGraphic" in2="effect1_backgroundBlur_796_4804" result="shape"/>
</filter>
<filter id="filter6_b_796_4804" x="400" y="421" width="316" height="117" filterUnits="userSpaceOnUse" color-interpolation-filters="sRGB">
<feFlood flood-opacity="0" result="BackgroundImageFix"/>
<feGaussianBlur in="BackgroundImageFix" stdDeviation="12"/>
<feComposite in2="SourceAlpha" operator="in" result="effect1_backgroundBlur_796_4804"/>
<feBlend mode="normal" in="SourceGraphic" in2="effect1_backgroundBlur_796_4804" result="shape"/>
</filter>
<filter id="filter7_i_796_4804" x="445.582" y="466.191" width="9.8418" height="12.7666" filterUnits="userSpaceOnUse" color-interpolation-filters="sRGB">
<feFlood flood-opacity="0" result="BackgroundImageFix"/>
<feBlend mode="normal" in="SourceGraphic" in2="BackgroundImageFix" result="shape"/>
<feColorMatrix in="SourceAlpha" type="matrix" values="0 0 0 0 0 0 0 0 0 0 0 0 0 0 0 0 0 0 127 0" result="hardAlpha"/>
<feOffset dy="2.5"/>
<feGaussianBlur stdDeviation="1.25"/>
<feComposite in2="hardAlpha" operator="arithmetic" k2="-1" k3="1"/>
<feColorMatrix type="matrix" values="0 0 0 0 0 0 0 0 0 0 0 0 0 0 0 0 0 0 0.5 0"/>
<feBlend mode="normal" in2="shape" result="effect1_innerShadow_796_4804"/>
</filter>
<filter id="filter8_b_796_4804" x="5" y="510" width="293" height="117" filterUnits="userSpaceOnUse" color-interpolation-filters="sRGB">
<feFlood flood-opacity="0" result="BackgroundImageFix"/>
<feGaussianBlur in="BackgroundImageFix" stdDeviation="12"/>
<feComposite in2="SourceAlpha" operator="in" result="effect1_backgroundBlur_796_4804"/>
<feBlend mode="normal" in="SourceGraphic" in2="effect1_backgroundBlur_796_4804" result="shape"/>
</filter>
<filter id="filter9_i_796_4804" x="50.582" y="555.191" width="9.8418" height="12.7666" filterUnits="userSpaceOnUse" color-interpolation-filters="sRGB">
<feFlood flood-opacity="0" result="BackgroundImageFix"/>
<feBlend mode="normal" in="SourceGraphic" in2="BackgroundImageFix" result="shape"/>
<feColorMatrix in="SourceAlpha" type="matrix" values="0 0 0 0 0 0 0 0 0 0 0 0 0 0 0 0 0 0 127 0" result="hardAlpha"/>
<feOffset dy="2.5"/>
<feGaussianBlur stdDeviation="1.25"/>
<feComposite in2="hardAlpha" operator="arithmetic" k2="-1" k3="1"/>
<feColorMatrix type="matrix" values="0 0 0 0 0 0 0 0 0 0 0 0 0 0 0 0 0 0 0.5 0"/>
<feBlend mode="normal" in2="shape" result="effect1_innerShadow_796_4804"/>
</filter>
<radialGradient id="paint0_radial_796_4804" cx="0" cy="0" r="1" gradientUnits="userSpaceOnUse" gradientTransform="translate(351 351) rotate(89.8778) scale(327.275)">
<stop stop-color="#D6AF50" stop-opacity="0.6"/>
<stop offset="1" stop-color="#E1BE65" stop-opacity="0"/>
</radialGradient>
<linearGradient id="paint1_linear_796_4804" x1="129.928" y1="483" x2="129.928" y2="548.504" gradientUnits="userSpaceOnUse">
<stop stop-color="#998C5F"/>
<stop offset="1" stop-color="#302A16"/>
</linearGradient>
<linearGradient id="paint2_linear_796_4804" x1="390.415" y1="484.715" x2="390.415" y2="546.387" gradientUnits="userSpaceOnUse">
<stop stop-color="#998C5F"/>
<stop offset="1" stop-color="#302A16"/>
</linearGradient>
<linearGradient id="paint3_linear_796_4804" x1="187.323" y1="466.872" x2="187.323" y2="516.918" gradientUnits="userSpaceOnUse">
<stop stop-color="#998C5F"/>
<stop offset="1" stop-color="#302A16"/>
</linearGradient>
<linearGradient id="paint4_linear_796_4804" x1="332" y1="508" x2="347.527" y2="555.595" gradientUnits="userSpaceOnUse">
<stop/>
<stop offset="1" stop-color="#1B1300"/>
</linearGradient>
<linearGradient id="paint5_linear_796_4804" x1="340" y1="514" x2="340" y2="587" gradientUnits="userSpaceOnUse">
<stop stop-color="#998C5F"/>
<stop offset="1" stop-color="#302A16"/>
</linearGradient>
<linearGradient id="paint6_linear_796_4804" x1="459.965" y1="483.729" x2="479.295" y2="521.926" gradientUnits="userSpaceOnUse">
<stop/>
<stop offset="1" stop-color="#1B1300"/>
</linearGradient>
<linearGradient id="paint7_linear_796_4804" x1="467.679" y1="489.973" x2="467.679" y2="552.397" gradientUnits="userSpaceOnUse">
<stop stop-color="#998C5F"/>
<stop offset="1" stop-color="#302A16"/>
</linearGradient>
<linearGradient id="paint8_linear_796_4804" x1="563.738" y1="494.664" x2="542.124" y2="531.617" gradientUnits="userSpaceOnUse">
<stop/>
<stop offset="1" stop-color="#1B1300"/>
</linearGradient>
<linearGradient id="paint9_linear_796_4804" x1="14.5371" y1="0" x2="14.5371" y2="62.424" gradientUnits="userSpaceOnUse">
<stop stop-color="#998C5F"/>
<stop offset="1" stop-color="#302A16"/>
</linearGradient>
<linearGradient id="paint10_linear_796_4804" x1="259.6" y1="461.509" x2="252.344" y2="503.111" gradientUnits="userSpaceOnUse">
<stop/>
<stop offset="1" stop-color="#1B1300"/>
</linearGradient>
<linearGradient id="paint11_linear_796_4804" x1="14.34" y1="0" x2="14.34" y2="61.5778" gradientUnits="userSpaceOnUse">
<stop stop-color="#998C5F"/>
<stop offset="1" stop-color="#302A16"/>
</linearGradient>
<linearGradient id="paint12_linear_796_4804" x1="114.819" y1="321.989" x2="241.514" y2="148.284" gradientUnits="userSpaceOnUse">
<stop stop-color="#0F0D00"/>
<stop offset="1" stop-color="#2D2500"/>
</linearGradient>
<linearGradient id="paint13_linear_796_4804" x1="363.683" y1="46.5716" x2="34.2284" y2="294.421" gradientUnits="userSpaceOnUse">
<stop stop-color="#FFCC12"/>
<stop offset="1" stop-color="#997A0B" stop-opacity="0"/>
</linearGradient>
<linearGradient id="paint14_linear_796_4804" x1="349.666" y1="304.851" x2="502.234" y2="101.347" gradientUnits="userSpaceOnUse">
<stop stop-color="#0F0D00"/>
<stop offset="1" stop-color="#4F4100"/>
</linearGradient>
<linearGradient id="paint15_linear_796_4804" x1="645.347" y1="-23.0095" x2="253.37" y2="271.308" gradientUnits="userSpaceOnUse">
<stop stop-color="#FFCC12"/>
<stop offset="1" stop-color="#997A0B" stop-opacity="0"/>
</linearGradient>
<linearGradient id="paint16_linear_796_4804" x1="453.791" y1="336.158" x2="549.115" y2="120.554" gradientUnits="userSpaceOnUse">
<stop stop-color="#0F0D00"/>
<stop offset="1" stop-color="#2D2500"/>
</linearGradient>
<linearGradient id="paint17_linear_796_4804" x1="732.747" y1="43.7046" x2="398.283" y2="294.838" gradientUnits="userSpaceOnUse">
<stop stop-color="#FFCC12"/>
<stop offset="1" stop-color="#997A0B" stop-opacity="0"/>
</linearGradient>
<linearGradient id="paint18_linear_796_4804" x1="336" y1="375" x2="263" y2="180.5" gradientUnits="userSpaceOnUse">
<stop stop-color="#FFE587" stop-opacity="0"/>
<stop offset="1" stop-color="#FFDC5E" stop-opacity="0.4"/>
</linearGradient>
<linearGradient id="paint19_linear_796_4804" x1="651.418" y1="14.4469" x2="141.758" y2="397.126" gradientUnits="userSpaceOnUse">
<stop stop-color="#FFCC12"/>
<stop offset="1" stop-color="#997A0B" stop-opacity="0"/>
</linearGradient>
<linearGradient id="paint20_linear_796_4804" x1="558.74" y1="648.019" x2="589.874" y2="445.204" gradientUnits="userSpaceOnUse">
<stop stop-color="#FFE587" stop-opacity="0"/>
<stop offset="1" stop-color="#1B160B"/>
</linearGradient>
<linearGradient id="paint21_linear_796_4804" x1="903.178" y1="389.104" x2="787.752" y2="684.509" gradientUnits="userSpaceOnUse">
<stop stop-color="#FFCC12"/>
<stop offset="1" stop-color="#997A0B" stop-opacity="0"/>
</linearGradient>
<linearGradient id="paint22_linear_796_4804" x1="458.75" y1="461.937" x2="457.813" y2="485.375" gradientUnits="userSpaceOnUse">
<stop stop-color="#F1AA14"/>
<stop offset="0.400131" stop-color="#FFE6BD"/>
<stop offset="0.693625" stop-color="#FFE6BD"/>
<stop offset="0.936395" stop-color="#F1AA14"/>
</linearGradient>
<linearGradient id="paint23_linear_796_4804" x1="447.187" y1="472.563" x2="439.063" y2="462.875" gradientUnits="userSpaceOnUse">
<stop stop-color="#EDB806" stop-opacity="0"/>
<stop offset="1" stop-color="#EDB806"/>
</linearGradient>
<linearGradient id="paint24_linear_796_4804" x1="450" y1="456" x2="450" y2="486" gradientUnits="userSpaceOnUse">
<stop stop-color="#CB8A00"/>
<stop offset="1" stop-color="white"/>
</linearGradient>
<linearGradient id="paint25_linear_796_4804" x1="453.32" y1="459.711" x2="444.688" y2="476.313" gradientUnits="userSpaceOnUse">
<stop stop-color="#FED20D"/>
<stop offset="0.388936" stop-color="#FFE794"/>
<stop offset="0.579707" stop-color="#FFE794"/>
<stop offset="1" stop-color="#FCBE13"/>
</linearGradient>
<linearGradient id="paint26_linear_796_4804" x1="440.039" y1="476.313" x2="457.305" y2="464.692" gradientUnits="userSpaceOnUse">
<stop stop-color="#CB8A00"/>
<stop offset="1" stop-color="#FFCC12"/>
</linearGradient>
<linearGradient id="paint27_linear_796_4804" x1="445.538" y1="465.625" x2="447.284" y2="476.954" gradientUnits="userSpaceOnUse">
<stop stop-color="#FED356"/>
<stop offset="1" stop-color="#804C00"/>
</linearGradient>
<linearGradient id="paint28_linear_796_4804" x1="152.177" y1="737.019" x2="186.08" y2="535.118" gradientUnits="userSpaceOnUse">
<stop stop-color="#FFE587" stop-opacity="0"/>
<stop offset="1" stop-color="#1B160B"/>
</linearGradient>
<linearGradient id="paint29_linear_796_4804" x1="467.055" y1="478.104" x2="343.996" y2="766.013" gradientUnits="userSpaceOnUse">
<stop stop-color="#FFCC12"/>
<stop offset="1" stop-color="#997A0B" stop-opacity="0"/>
</linearGradient>
<linearGradient id="paint30_linear_796_4804" x1="63.75" y1="550.937" x2="62.8125" y2="574.375" gradientUnits="userSpaceOnUse">
<stop stop-color="#F1AA14"/>
<stop offset="0.400131" stop-color="#FFE6BD"/>
<stop offset="0.693625" stop-color="#FFE6BD"/>
<stop offset="0.936395" stop-color="#F1AA14"/>
</linearGradient>
<linearGradient id="paint31_linear_796_4804" x1="52.1875" y1="561.563" x2="44.0625" y2="551.875" gradientUnits="userSpaceOnUse">
<stop stop-color="#EDB806" stop-opacity="0"/>
<stop offset="1" stop-color="#EDB806"/>
</linearGradient>
<linearGradient id="paint32_linear_796_4804" x1="55" y1="545" x2="55" y2="575" gradientUnits="userSpaceOnUse">
<stop stop-color="#CB8A00"/>
<stop offset="1" stop-color="white"/>
</linearGradient>
<linearGradient id="paint33_linear_796_4804" x1="58.3203" y1="548.711" x2="49.6875" y2="565.313" gradientUnits="userSpaceOnUse">
<stop stop-color="#FED20D"/>
<stop offset="0.388936" stop-color="#FFE794"/>
<stop offset="0.579707" stop-color="#FFE794"/>
<stop offset="1" stop-color="#FCBE13"/>
</linearGradient>
<linearGradient id="paint34_linear_796_4804" x1="45.0391" y1="565.313" x2="62.3047" y2="553.692" gradientUnits="userSpaceOnUse">
<stop stop-color="#CB8A00"/>
<stop offset="1" stop-color="#FFCC12"/>
</linearGradient>
<linearGradient id="paint35_linear_796_4804" x1="50.5382" y1="554.625" x2="52.2844" y2="565.954" gradientUnits="userSpaceOnUse">
<stop stop-color="#FED356"/>
<stop offset="1" stop-color="#804C00"/>
</linearGradient>
<clipPath id="clip0_796_4804">
<rect x="80" y="159.146" width="158.662" height="138.966" rx="12" fill="white"/>
</clipPath>
<clipPath id="clip1_796_4804">
<rect width="245.105" height="215.092" fill="white" transform="translate(213.176 188.689)"/>
</clipPath>
</defs>
</svg>
