<svg width="64" height="60" viewBox="0 0 64 60" fill="none" xmlns="http://www.w3.org/2000/svg">
<g id="Frame 1261152971">
<rect id="Rectangle 39971" x="-0.000976562" width="63.4091" height="60" rx="30" fill="#2A2200"/>
<g id="Group">
<path id="Vector" d="M25.93 20.1422L26.7897 22.5313C27.7459 25.1829 29.8337 27.2706 32.4852 28.2268L34.8743 29.0865C35.0899 29.1642 35.0899 29.4695 34.8743 29.5472L32.4852 30.407C29.8336 31.3632 27.7459 33.4509 26.7897 36.1024L25.93 38.4915C25.8523 38.7071 25.547 38.7071 25.4693 38.4915L24.6096 36.1024C23.6534 33.4508 21.5656 31.3631 18.9141 30.407L16.525 29.5472C16.3094 29.4695 16.3094 29.1642 16.525 29.0865L18.9141 28.2268C21.5657 27.2706 23.6534 25.1828 24.6096 22.5313L25.4693 20.1422C25.547 19.9253 25.8523 19.9253 25.93 20.1422Z" fill="#E9C872"/>
<path id="Vector_2" d="M36.6857 14.4012L37.1222 15.6105C37.607 16.9524 38.6636 18.0103 40.0068 18.4951L41.2161 18.9317C41.3259 18.9719 41.3259 19.1259 41.2161 19.1647L40.0068 19.6013C38.665 20.0861 37.607 21.1427 37.1222 22.4859L36.6857 23.6951C36.6455 23.8049 36.4915 23.8049 36.4526 23.6951L36.0161 22.4859C35.5313 21.144 34.4747 20.0861 33.1315 19.6013L31.9222 19.1647C31.8124 19.1245 31.8124 18.9705 31.9222 18.9317L33.1315 18.4951C34.4733 18.0103 35.5313 16.9537 36.0161 15.6105L36.4526 14.4012C36.4915 14.2901 36.6468 14.2901 36.6857 14.4012Z" fill="#E9C872"/>
<path id="Vector_3" d="M36.6857 34.9412L37.1222 36.1505C37.607 37.4924 38.6636 38.5503 40.0068 39.0351L41.2161 39.4717C41.3259 39.5119 41.3259 39.6659 41.2161 39.7047L40.0068 40.1413C38.665 40.6261 37.607 41.6827 37.1222 43.0259L36.6857 44.2351C36.6455 44.345 36.4915 44.345 36.4526 44.2351L36.0161 43.0259C35.5313 41.684 34.4747 40.6261 33.1315 40.1413L31.9222 39.7047C31.8124 39.6645 31.8124 39.5105 31.9222 39.4717L33.1315 39.0351C34.4733 38.5503 35.5313 37.4937 36.0161 36.1505L36.4526 34.9412C36.4915 34.8314 36.6468 34.8314 36.6857 34.9412Z" fill="#E9C872"/>
</g>
</g>
</svg>
