<svg width="64" height="60" viewBox="0 0 64 60" fill="none" xmlns="http://www.w3.org/2000/svg">
<rect x="-0.000915527" width="63.4091" height="60" rx="30" fill="#2A2200"/>
<g clip-path="url(#clip0_78_214)">
<path d="M22.88 32.8371H28.4629V31.659C28.4629 29.6484 26.833 28.0186 24.8224 28.0186H20.6405C18.6299 28.0186 17 29.6484 17 31.659V37.3434H22.88V32.8371Z" fill="#E9C872"/>
<path d="M22.7314 26.1782C25.0588 26.1782 26.9456 24.2914 26.9456 21.9641C26.9456 19.6367 25.0588 17.7499 22.7314 17.7499C20.4041 17.7499 18.5173 19.6367 18.5173 21.9641C18.5173 24.2914 20.4041 26.1782 22.7314 26.1782Z" fill="#E9C872"/>
<path d="M24.637 34.5941H27.658V43.8207H24.637V34.5941Z" fill="#E9C872"/>
<path d="M38.4026 33.5549H37.1908V30.7014C37.1908 29.0461 35.8489 27.7042 34.1935 27.7042C33.5093 27.7042 32.9547 28.2589 32.9547 28.9431V31.885L31.5519 33.5549L29.4149 34.5941V43.8207L31.3836 44.9921H38.4026C40.0408 44.9921 41.3688 43.6641 41.3688 42.0259V36.5211C41.3688 34.8829 40.0408 33.5549 38.4026 33.5549Z" fill="#E9C872"/>
<path d="M31.1168 18.9621C32.7043 19.9765 34.0566 21.3288 35.0711 22.9163C36.0855 21.3288 37.4377 19.9765 39.0253 18.9621C37.4378 17.9477 36.0855 16.5955 35.0711 15.0079C34.0566 16.5955 32.7043 17.9477 31.1168 18.9621Z" fill="#E9C872"/>
<path d="M47 25.2997C45.4125 24.2853 44.0602 22.933 43.0458 21.3456C42.0313 22.9331 40.679 24.2854 39.0916 25.2997C40.679 26.3142 42.0313 27.6664 43.0458 29.2539C44.0602 27.6664 45.4125 26.3142 47 25.2997Z" fill="#E9C872"/>
</g>
<defs>
<clipPath id="clip0_78_214">
<rect width="30" height="30" fill="white" transform="translate(17 15)"/>
</clipPath>
</defs>
</svg>
