<svg width="64" height="60" viewBox="0 0 64 60" fill="none" xmlns="http://www.w3.org/2000/svg">
<rect x="-0.000854492" width="63.4091" height="60" rx="30" fill="#2A2200"/>
<g clip-path="url(#clip0_78_197)">
<path d="M20.4156 41.4844V41.5844H20.5156H46.9V44.9H17.1V15.1H20.4156V41.4844Z" fill="#E9C872" stroke="#2A2200" stroke-width="0.2"/>
<path d="M45.8576 18.4869L37.9659 26.3786L32.8815 21.2942L32.8108 21.2235L32.7401 21.2942L22.3734 31.6609V26.9719L32.8108 16.5345L37.8952 21.6189L37.9659 21.6896L38.0366 21.6189L43.5131 16.1424L43.5838 16.0717L43.5131 16.001L42.6122 15.1H46.9V19.3878L45.999 18.4869L45.9283 18.4162L45.8576 18.4869Z" fill="#E9C872" stroke="#2A2200" stroke-width="0.2"/>
<path d="M44.061 35.0448L44.0737 35.2397C45.6746 35.4881 46.9 36.8725 46.9 38.5431V39.6266H26.4398V38.5431C26.4398 36.8725 27.6653 35.4881 29.2662 35.2397L29.2788 35.0448C28.5288 34.8265 27.9803 34.134 27.9789 33.3127C27.9805 32.3158 28.7878 31.5084 29.7832 31.5084C30.7785 31.5084 31.5858 32.3157 31.5874 33.3127C31.5861 34.1339 31.0376 34.8264 30.2876 35.0448L30.3002 35.2397C31.9011 35.4881 33.1265 36.8725 33.1265 38.5431H33.2265H33.3265C33.3265 36.8725 34.552 35.4881 36.1529 35.2397L36.1655 35.0448C35.4155 34.8265 34.867 34.134 34.8656 33.3127C34.8672 32.3158 35.6745 31.5084 36.6699 31.5084C37.6652 31.5084 38.4725 32.3157 38.4741 33.3127C38.4728 34.1339 37.9243 34.8264 37.1743 35.0448L37.1869 35.2397C38.7878 35.4881 40.0132 36.8725 40.0132 38.5431H40.1132H40.2132C40.2132 36.8725 41.4387 35.4881 43.0396 35.2397L43.0522 35.0448C42.3022 34.8265 41.7537 34.134 41.7524 33.3127C41.754 32.3158 42.5612 31.5084 43.5566 31.5084C44.552 31.5084 45.3593 32.3157 45.3609 33.3127C45.3596 34.1339 44.8111 34.8264 44.061 35.0448Z" fill="#E9C872" stroke="#2A2200" stroke-width="0.2"/>
</g>
<defs>
<clipPath id="clip0_78_197">
<rect width="30" height="30" fill="white" transform="translate(17 15)"/>
</clipPath>
</defs>
</svg>
