<svg width="64" height="60" viewBox="0 0 64 60" fill="none" xmlns="http://www.w3.org/2000/svg">
<g id="Frame 1261152971">
<rect id="Rectangle 39971" x="-0.000976562" width="63.4091" height="60" rx="30" fill="#2A2200"/>
<path id="Vector" fill-rule="evenodd" clip-rule="evenodd" d="M24.3909 23.8714H27.3336V29.1536H27.3366C27.3366 29.2596 27.37 29.3627 27.4397 29.4506C27.6033 29.6597 27.9064 29.6991 28.1155 29.5324L29.5095 28.4414L30.8733 29.5051C30.9611 29.5839 31.0763 29.6324 31.2036 29.6324C31.4703 29.6324 31.6885 29.4172 31.6885 29.1505V23.8714H34.6311C35.6312 23.8714 36.4494 24.6896 36.4494 25.6866V35.9238C36.4494 36.9239 35.6312 37.7421 34.6311 37.7421H24.3909C23.3939 37.7421 22.5757 36.9239 22.5757 35.9238V25.6866C22.5757 24.6866 23.3939 23.8714 24.3909 23.8714ZM28.3034 23.8714H30.7187V28.1656L29.8065 27.4534C29.6247 27.311 29.3762 27.3201 29.2065 27.4595L28.3034 28.1656V23.8714ZM19.9482 19.3892H36.0888C37.4162 19.3892 38.6254 19.9347 39.5042 20.8105C40.38 21.6863 40.9255 22.8955 40.9255 24.2259V37.3815C40.9255 38.7088 40.3831 39.918 39.5042 40.7969C38.6284 41.6727 37.4192 42.2182 36.0888 42.2182H20.5361C19.9573 42.2182 19.4875 42.691 19.4875 43.2698C19.4875 43.8486 19.9573 44.3184 20.5361 44.3184H36.0888C37.998 44.3184 39.7315 43.5395 40.9892 42.2818C42.2468 41.0272 43.0287 39.2937 43.0287 37.3845V24.2259C43.0287 22.3167 42.2468 20.5832 40.9922 19.3256C39.7376 18.0679 38.0011 17.289 36.0918 17.289H19.9482L21.124 16.1132C21.5332 15.7041 21.5332 15.0374 21.124 14.6252C20.7149 14.2161 20.0482 14.2161 19.6391 14.6252L16.6691 17.5982C16.26 18.0073 16.26 18.674 16.6691 19.0831L19.6391 22.053C20.0482 22.4622 20.7149 22.4622 21.124 22.053C21.5332 21.6439 21.5332 20.9772 21.124 20.5681L19.9482 19.3892Z" fill="#E9C872"/>
</g>
</svg>
